<?xml version="1.0" encoding="utf-8"?>
<!-- Generator: Adobe Illustrator 26.5.0, SVG Export Plug-In . SVG Version: 6.00 Build 0)  -->
<svg version="1.1" id="Layer_1" xmlns="http://www.w3.org/2000/svg" xmlns:xlink="http://www.w3.org/1999/xlink" x="0px" y="0px"
	 viewBox="0 0 174 267.3" style="enable-background:new 0 0 174 267.3;" xml:space="preserve">
<style type="text/css">
	.st0{fill:none;stroke:#A0DC00;stroke-width:2;stroke-miterlimit:10;}
	.st1{opacity:0.89;fill:#A0DC00;enable-background:new    ;}
	.st2{font-family:'Inter-Bold';}
	.st3{font-size:16px;}
</style>
<g id="Layer_2_00000125568874624680328360000002607879454303355551_">
	<g id="svg">
		<path id="AL" class="st0" d="M1.8,18l1,2l3.6,2.3l1.6,105.1l0.5,57.7l13.1,78.9l1-0.3l11.5,2.3l3.1-22.8l5.1,12.8l8.8,8l16.7-9.7
			l-1.8-1.5l0.5,0.3l-11.5-26.4l110.7-17.9l7.4-1.3v-0.3l-6.9-13.1l-0.5-18.7l-5.6-10.2l2.8-20l4.6-5.1l-19-33.8L114,1.6l-0.3-0.5
			L106,2.4L65,9l-20.5,2.6l-43,5.9L1.8,18L1.8,18z"/>
		<text transform="matrix(1 0 0 1 72.6297 129.2434)" class="st1 st2 st3">AL</text>
	</g>
</g>
</svg>
