<svg xmlns="http://www.w3.org/2000/svg" viewBox="0 0 171.46 265"><defs><style>.cls-1{fill:#dcf381;fill-rule:evenodd;}.cls-2{font-size:16px;font-family:Inter-Bold, Inter;font-weight:700;letter-spacing:-0.01em;}.cls-2,.cls-3{opacity:0.89;}.cls-3{font-size:20px;font-family:PPEditorialNew-Regular, PP Editorial New;letter-spacing:-0.01em;}</style></defs><title>al-solid</title><g id="Layer_2" data-name="Layer 2"><g id="svg"><path id="AL" class="cls-1" d="M.26,16.91l1,2.06,3.59,2.3L6.41,126.35,6.92,184,20,263l1-.26L32.55,265l3.07-22.81L40.75,255,49.46,263l16.66-9.74-1.79-1.54.51.26-11.53-26.4L164,207.59l7.44-1.28v-.26L164.54,193,164,174.27,158.39,164l2.81-20,4.62-5.12-19-33.83L112.51.51,112.25,0l-7.69,1.28-41,6.66-20.5,2.57L0,16.4l.26.51Z"/><text class="cls-2" transform="translate(66.51 113.89)">AL</text><text class="cls-3" transform="translate(72.23 138.25)">3</text></g></g></svg>