<?xml version="1.0" encoding="utf-8"?>
<!-- Generator: Adobe Illustrator 26.5.0, SVG Export Plug-In . SVG Version: 6.00 Build 0)  -->
<svg version="1.1" id="Layer_1" xmlns="http://www.w3.org/2000/svg" xmlns:xlink="http://www.w3.org/1999/xlink" x="0px" y="0px"
	 viewBox="0 0 267.7 148.4" style="enable-background:new 0 0 267.7 148.4;" xml:space="preserve">
<style type="text/css">
	.st0{fill:none;stroke:#A0DC00;stroke-width:2;stroke-miterlimit:10;}
	.st1{opacity:0.89;fill:#A0DC00;enable-background:new    ;}
	.st2{font-family:'Inter-Bold';}
	.st3{font-size:16px;}
</style>
<g id="Layer_2_00000152982189956006864470000012476284030306513842_">
	<g id="svg">
		<path id="KY" class="st0" d="M4,146.5l-0.7-1.8L2,144.3l-0.9,2.8l0.2,0.2l2.4-0.2L4,146.5L4,146.5z M152.9,4.1l-0.4,0.4l2.8,10.7
			l-11.8,9.4l-9.6,0.2l2.2,8.2l-13.7,18.1l0.2,6.3l-15.5-1.3l-5.7,11.1l-10.5-1.5l-7,5.2l-1.3,5l-12.2-4.6l-9.8,3.3h-8.1l-3.3,6.1
			l-0.9,0.2v0.7L45.3,89l3.7,5.2l-13.7,8l3.3,9.6l-4.1,4.8L17.6,112l-4.4,10.2l1.3,1.3l0.4,0.9l-2,17.9l-0.9,0.4l-5.7,3.5l-0.2,0.6
			l6.3-0.9l44-5.9l-2.2-8.7l7.4-0.2l88.6-11.8l62.3-10.4l0.9-0.7l1.5-1.7l16.3-8.7l12.6-16.5l1.7-5.7l8.3-6.5l10.4-13.2l1.5-2.2
			l-0.6-0.2H260l-7-3.9l-12.4-15l-4.3-15.3v-0.4l-0.4-0.4l-9.1-5.2l-4.1-7l-8.3,8.1l-5.2,1.3l-6.5-2.6l-5.7,4.4l-11.8-5.2l-3,1.3
			L171,3.9L165.3,1l-10.7,1.3L152.9,4.1z"/>
		<text transform="matrix(1 0 0 1 171.38 68.7681)" class="st1 st2 st3">KY</text>
	</g>
</g>
</svg>
