<?xml version="1.0" encoding="UTF-8"?><svg id="Layer_2" xmlns="http://www.w3.org/2000/svg" viewBox="0 0 332.9 184.06"><defs><style>.cls-1{fill:#2bc607;}</style></defs><g id="Layer_1-2"><g id="Layer_2-2"><g id="svg"><path id="KY" class="cls-1" d="M3.65,183.06l-.88-2.26-1.64-.5-1.13,3.52,.25,.25,3.02-.25,.38-.75h0ZM190.98,3.9l-.5,.5,3.52,13.46-14.85,11.83-12.08,.25,2.77,10.32-17.24,22.77,.25,7.93-19.5-1.64-7.17,13.97-13.21-1.89-8.81,6.54-1.64,6.29-15.35-5.79-12.33,4.15h-10.19l-4.15,7.67-1.13,.25v.88l-3.77,9.31,4.66,6.54-17.24,10.07,4.15,12.08-5.16,6.04-21.26-5.79-5.54,12.83,1.64,1.64,.5,1.13-2.52,22.52-1.13,.5-7.17,4.4-.25,.75,7.93-1.13,55.36-7.42-2.77-10.95,9.31-.25,111.47-14.85,78.38-13.08,1.13-.88,1.89-2.14,20.51-10.95,15.85-20.76,2.14-7.17,10.44-8.18,13.08-16.61,1.89-2.77-.75-.25h-6.42l-8.81-4.91-15.6-18.87-5.41-19.25v-.5l-.5-.5-11.45-6.54-5.16-8.81-10.44,10.19-6.54,1.64-8.18-3.27-7.17,5.54-14.85-6.54-3.77,1.64-14.09-12.2-7.17-3.65-13.46,1.64-2.14,2.26Z"/></g></g></g></svg>