<svg xmlns="http://www.w3.org/2000/svg" viewBox="0 0 265 146.33"><defs><style>.cls-1{fill:#dcf381;fill-rule:evenodd;}.cls-2{font-size:16px;font-family:Inter-Bold, Inter;font-weight:700;}.cls-2,.cls-3{letter-spacing:-0.01em;opacity:0.89;}.cls-3{font-size:20px;font-family:PPEditorialNew-Regular, PP Editorial New;}</style></defs><title>ky-solid</title><g id="Layer_2" data-name="Layer 2"><g id="svg"><path id="KY" class="cls-1" d="M2.83,145.46l-.65-1.75-1.31-.43L0,146.11l.22.22,2.39-.22.22-.65ZM151.77,3.05l-.43.43,2.83,10.67-11.76,9.37-9.58.21L135,32,121.29,50.08l.21,6.32L106,55.09,100.38,66.2,89.93,64.67,83,69.9l-1.3,5-12.2-4.58-9.8,3.27h-8l-3.27,6.1-.87.21v.66L44.2,88l3.7,5.23-13.71,8,3.26,9.58-4.13,4.79-16.77-4.57-4.36,10.24,1.31,1.3.44.87-2,17.86-.87.43-5.67,3.49-.21.65,6.31-.87,44-5.88-2.18-8.71,7.4-.22,88.63-11.75L211.65,108l.87-.65,1.53-1.74,16.33-8.71L243,80.35l1.74-5.66L253,68.16l10.46-13.29L265,52.7l-.65-.22H258.9l-7-3.92-12.42-15-4.35-15.24v-.43l-.44-.44-9.14-5.23-4.14-7-8.27,8L208,14.59,201.42,12l-5.66,4.35L184,11.11,181,12.41,169.84,2.83,164.18,0,153.51,1.31l-1.74,1.74Z"/><text class="cls-2" transform="translate(170.25 53.9)">KY</text><text class="cls-3" transform="translate(178 78.26)">1</text></g></g></svg>