<?xml version="1.0" encoding="utf-8"?>
<!-- Generator: Adobe Illustrator 26.5.0, SVG Export Plug-In . SVG Version: 6.00 Build 0)  -->
<svg version="1.1" id="Layer_1" xmlns="http://www.w3.org/2000/svg" xmlns:xlink="http://www.w3.org/1999/xlink" x="0px" y="0px"
	 viewBox="0 0 267.3 224.6" style="enable-background:new 0 0 267.3 224.6;" xml:space="preserve">
<style type="text/css">
	.st0{fill:none;stroke:#DCF381;stroke-width:2;stroke-miterlimit:10;}
	.st1{opacity:0.89;fill:#DCF381;enable-background:new    ;}
	.st2{font-family:'Inter-Bold';}
	.st3{font-size:16px;}
	.st4{fill:#DCF381;}
</style>
<g id="Layer_2_00000034065380276645680900000005601377997884601791_">
	<g id="svg">
		<path id="LA" class="st0" d="M182.9,218.8l-3.5,0.8l-1.6,1.6L182.9,218.8L182.9,218.8z M194.3,218.8l-1.9-0.8l-0.5,0.8H194.3z
			 M200.7,216.6h-1.9l-1.1,1.4L200.7,216.6z M197.5,214.7l-0.5-0.8l-0.3,0.8H197.5z M219.1,200.4l-0.8,0.5h1.4L219.1,200.4
			L219.1,200.4z M256.9,184.5l1.6-2.2l-1.9,2.4L256.9,184.5L256.9,184.5z M262.3,177.5l-0.5,0.3v0.2L262.3,177.5L262.3,177.5z
			 M123.6,201.2l4-5.1l-11.1-3l-4.9,4.1L123.6,201.2L123.6,201.2z M235.6,177.8l-1.1-1.1l-0.3,0.5L235.6,177.8L235.6,177.8z
			 M238.6,172.9l-2.7-0.8l0.8,2.7L238.6,172.9z M260.7,168.3L260.7,168.3z M266.1,164.8l-0.3-0.3l0.3,0.5V164.8L266.1,164.8z
			 M263.9,164.3l-0.5-0.3l-0.3,0.8L263.9,164.3z M245,163.4l2.4-0.8v-0.8L245,163.4z M246.4,162.1l1.4-1.3l-0.3-0.3L246.4,162.1z
			 M236.9,152.1l-0.5,0.5h0.3L236.9,152.1L236.9,152.1z M137.3,1h-0.5L35,10.4L9.4,12.3L1,13.1l0.3,6.5l5.4,52.1l8.9,12.4l0.3,7.3
			l8.6,15.1l7,22.1l-2.4,12.4l-1.9,30.8l-4,10h0.5l0.8,7l-4.6,6.5l33.5-3.8l26.2,7.3l18.6,2.4l9.4-6.7l-5.1-6.8l17.3-5.4l-0.5,5.9
			l8.9-2.2l7.3,11.3l6.2-2.2l16.2,11.1l-10,3.5l22.9,6.8h8.6l5.1-6.2l11.1-5.9l7.8,11.3l5.4-10.3l-1.6-16.2l14.5,5.6l1.6,4.9
			l17.3,2.1l8.6,7l-1.1,5.7l12.1-11.3l-4.6-5.9l-20.2-5.1L228,188l-0.3-8.1l8.4,1.1l6.5-13.2l-8.4-11.6l-4.6,11.1l-10.5-1.9
			l7.3-11.9l-4.9-1.4l-11.9,8.4l-17,1.1l-4.9-3.8l7.8-13.8l9.2-0.3l15.6,5.1l11.3,1.1l0,0l-6.2-7.8L213.7,119l3.2-13l-93.1,10.3
			l3.5-3.5l-3.8-9.7l5.7-8.4l3.2-21L153,38.5l-10-12.1l0.5-8.9l-6.2-14.6L137.3,1L137.3,1z"/>
		<text transform="matrix(1 0 0 1 69.9317 104.0983)" class="st1 st2 st3">L</text>
		<text transform="matrix(1 0 0 1 79.1417 104.0983)" class="st4 st2 st3">A</text>
	</g>
</g>
</svg>
