<svg xmlns="http://www.w3.org/2000/svg" viewBox="0 0 265 220.2"><defs><style>.cls-1{fill:#dcf381;fill-rule:evenodd;}.cls-2{font-size:16px;font-family:Inter-Bold, Inter;font-weight:700;letter-spacing:0.01em;}.cls-2,.cls-4{opacity:0.89;}.cls-3,.cls-4{letter-spacing:-0.01em;}.cls-4{font-size:20px;font-family:PPEditorialNew-Regular, PP Editorial New;}</style></defs><title>la-solid</title><g id="Layer_2" data-name="Layer 2"><g id="svg"><path id="LA" class="cls-1" d="M181.88,217.77l-3.5.81-1.62,1.62,5.12-2.43Zm11.34,0-1.89-.8-.54.8Zm6.47-2.15h-1.88L196.73,217Zm-3.23-1.89-.54-.81-.27.81ZM218,199.42l-.8.54h1.34l-.54-.54Zm37.78-15.92,1.62-2.16-1.89,2.43.27-.27Zm5.4-7-.54.27V177l.54-.54Zm-138.7,23.74,4-5.12-11.06-3-4.86,4.05,11.88,4Zm112-23.47-1.08-1.08-.27.54,1.35.54Zm3-4.86-2.69-.81.81,2.7Zm22.13-4.59v0Zm5.4-3.51-.27-.27.27.54v-.27Zm-2.16-.54-.54-.27-.27.81.81-.54ZM244,162.45l2.43-.81v-.8L244,162.45Zm1.35-1.35,1.35-1.34-.27-.27-1.08,1.61Zm-9.44-10-.54.54h.27l.27-.54ZM136.28,0h-.54L34,9.45,8.37,11.33,0,12.14l.27,6.48L5.67,70.7l8.9,12.42.27,7.28,8.64,15.11,7,22.13-2.42,12.42-1.89,30.76-4.05,10h.54l.81,7-4.59,6.48,33.46-3.78,26.18,7.29,18.62,2.42,9.44-6.74-5.12-6.75,17.27-5.4-.54,5.94,8.9-2.16,7.29,11.34,6.21-2.16,16.19,11.06-10,3.51,22.94,6.75h8.64l5.12-6.21,11.07-5.94,7.82,11.34,5.4-10.26-1.62-16.19L220.74,194l1.62,4.86L239.63,201l8.64,7-1.08,5.67,12.14-11.34-4.58-5.93-20.24-5.13L227,187l-.27-8.09,8.37,1.08,6.47-13.23-8.36-11.6-4.59,11.06L218,164.34l7.29-11.87-4.86-1.35-11.87,8.37-17,1.08-4.86-3.78L194.57,143l9.17-.27,15.65,5.13L230.73,149h0l-6.21-7.82-11.87-23.21,3.24-13-93.1,10.26,3.5-3.51L122.52,102l5.66-8.37,3.24-21,20.51-35.08L142,25.37l.53-8.91-6.2-14.57V0Z"/><text class="cls-2" transform="translate(64.18 85.71)">L<tspan class="cls-3" x="9.21" y="0">A</tspan></text><text class="cls-4" transform="translate(69.29 110.06)">4</text></g></g></svg>