<?xml version="1.0" encoding="UTF-8"?><svg id="Layer_2" xmlns="http://www.w3.org/2000/svg" viewBox="0 0 265.1 220.2"><defs><style>.cls-1{fill:#2bc607;}</style></defs><g id="Layer_1-2"><g id="Layer_2-2"><g id="svg"><path id="LA" class="cls-1" d="M181.9,217.8l-3.5,.8-1.6,1.6,5.1-2.4h0Zm11.4,0l-1.9-.8-.5,.8h2.4Zm6.4-2.2h-1.9l-1.1,1.4,3-1.4Zm-3.2-1.9l-.5-.8-.3,.8h.8Zm21.6-14.3l-.8,.5h1.4l-.6-.5h0Zm37.8-15.9l1.6-2.2-1.9,2.4,.3-.2h0Zm5.4-7l-.5,.3v.2l.5-.5h0Zm-138.7,23.7l4-5.1-11.1-3-4.9,4.1,12,4h0Zm112-23.4l-1.1-1.1-.3,.5,1.4,.6h0Zm3-4.9l-2.7-.8,.8,2.7,1.9-1.9Zm27.5-8.1l-.3-.3,.3,.5v-.2h0Zm-2.2-.5l-.5-.3-.3,.8,.8-.5Zm-18.9-.9l2.4-.8v-.8l-2.4,1.6Zm1.4-1.3l1.4-1.3-.3-.3-1.1,1.6Zm-9.5-10l-.5,.5h.3l.2-.5h0ZM136.3,0h-.5L34,9.4l-25.6,1.9L0,12.1l.3,6.5,5.4,52.1,8.9,12.4,.3,7.3,8.6,15.1,7,22.1-2.4,12.4-1.9,30.8-4,10h.5l.8,7-4.6,6.5,33.5-3.8,26.2,7.3,18.6,2.4,9.4-6.7-5.1-6.8,17.3-5.4-.5,5.9,8.9-2.2,7.3,11.3,6.2-2.2,16.2,11.1-10,3.5,22.9,6.8h8.6l5.1-6.2,11.1-5.9,7.8,11.3,5.4-10.3-1.6-16.2,14.5,5.6,1.6,4.9,17.3,2.1,8.6,7-1.1,5.7,12.1-11.3-4.6-5.9-20.2-5.1-7.4-4.2-.3-8.1,8.4,1.1,6.5-13.2-8.4-11.6-4.6,11.1-10.5-1.9,7.3-11.9-4.9-1.4-11.9,8.4-17,1.1-4.9-3.8,7.8-13.8,9.2-.3,15.6,5.1,11.3,1.1h0l-6.2-7.8-11.7-23.1,3.2-13-93.1,10.3,3.5-3.5-3.8-9.7,5.7-8.4,3.2-21,20.6-35.2-10-12.1,.5-8.9-6.2-14.6V0h0Z"/></g></g></g></svg>