<svg xmlns="http://www.w3.org/2000/svg" viewBox="0 0 1237.8 455.35"><defs><style>.cls-1{fill:#231f20;}</style></defs><title>logo_1</title><g id="Layer_2" data-name="Layer 2"><g id="Layer_1-2" data-name="Layer 1"><path class="cls-1" d="M21.42,30.16c0-15.08-1.85-18.54-21.42-18.54V6.43H55.62v5.19C35.84,11.62,34,15.08,34,30.16v150.3C34,195.54,35.84,199,55.62,199v5.19H0V199c19.57,0,21.42-3.46,21.42-18.54Z"/><path class="cls-1" d="M118.65,17.55c0,4.45-2.47,8.41-7,8.41-4.12,0-6.18-4-9.07-8.9C99.08,10.88,97,8.9,92.9,8.9c-9.47,0-16.48,9.89-16.48,40.29v25H98.67v8.41H76.42v97.89c0,15.33,2.27,18.54,20,18.54v5.19H50.47V199c13,0,14.62-3.21,14.62-18.54V82.57H51.7V76.39l13.39-1.73v-24C65.09,14.09,79.31,0,95.79,0,108.56,0,118.65,8.9,118.65,17.55Z"/><path class="cls-1" d="M362.75,161.67c-13.18,31.15-28.84,43.76-48.61,43.76-28.22,0-64.89-25-100.73-59.82-35.85,9.88-68,24.72-78.69,58.58H130a66.65,66.65,0,0,1-1.65-14.58c0-47,44.7-108,69-137.7l1.65,2c-10.1,12.36-69.42,85.78-67.16,142.39l2.27.25c12.77-30.41,40.17-47.71,70.86-59.33-5.56-5.69-11.12-11.62-16.48-17.8l1.44-2c6.59,6.43,13.19,12.36,19.78,18,58.09-21,125.24-23.73,125.24-57.6,0-27.19-43.26-33.62-84.66-33.62-57.47,0-115.56,12.61-127.1,17.06l-.62-2.48c12.36-4.94,72.31-28.92,138-28.92,41.82,0,77.45,8.65,77.45,45.74,0,48.94-62.21,53.64-118.44,68.23,35,28.92,67.56,47.21,94.55,47.21,19.57,0,34.81-10.38,46.76-30.65Z"/><path class="cls-1" d="M358.23,139.67c0-38.32,14-69.71,38.72-69.71,22.66,0,38.52,29.66,38.52,68.48,0,38.31-14,69.71-38.52,69.71C374.09,208.15,358.23,178.48,358.23,139.67Zm65.3,9.4c0-33.62-9.69-70.46-29.25-70.46-16.9,0-24.11,25.46-24.11,50.68,0,33.62,9.69,70.21,29.46,70.21C416.32,199.5,423.53,174,423.53,149.07Z"/><path class="cls-1" d="M501.8,152c-3.29,39.31-16.68,56.12-33.16,56.12-21.22,0-33.58-27.94-33.58-67,0-39.31,12.77-71.2,34.4-71.2,19.78,0,31.11,25,31.11,61.8H447v4.7c0,32.38,9.06,59.08,25.33,59.08,9.48,0,20.4-9.64,25.14-43.51Zm-54.38-28.67h41c0-22.5-4.94-45-18.74-45C456.28,78.36,449.27,99.13,447.42,123.36Z"/><path class="cls-1" d="M643.92,180.46c0-29.66,22-75.89,22-101.11C666,54.63,644.54,41,607.05,41c-44.7,0-64.48,17.55-64.48,35.59,0,12.12,9.07,22.5,13.19,26.7l-1.65,1.73c-6.18-5.68-14.63-16.07-14.63-29.91,0-21.26,22.46-47.71,67.36-47.71,36.88,0,62.21,19.78,62.21,50.18,0,28.43-21.42,76.39-21.42,99.38,0,9.39,3.71,13.6,12,13.6,38.72,0,109.17-84.8,109.17-128.8,0-9.64-3.91-17.06-15.65-17.06-9.68,0-21.63,4.21-32.34,17.06l-1.65-1.48c11.33-19,23.28-29.17,36.25-29.17,11.54,0,18.34,8.65,18.34,23,0,48.94-71.48,151.29-111.86,151.29C650.51,205.43,643.92,196.53,643.92,180.46Z"/><path class="cls-1" d="M1039.62,61.8c0-9.64-4.12-17.06-15.45-17.06-9.88,0-21.63,4.7-32.54,17.06L990,60.32c11.12-19,23.28-29.17,36.25-29.17,11.54,0,18.34,8.4,18.34,23,0,48.94-71.48,151.29-109.59,151.29-16.07,0-19.78-12.36-19.78-22.25C915.2,137,969.79,85,969.79,53.4c0-5.94-3.09-8.9-8.44-8.9-42.85,0-76.63,162.41-118.66,162.41-9.68,0-17.3-8.65-17.3-25.95,0-50.93,63.24-89,63.24-119.9,0-11.87-9.27-21.26-31.52-21.26-12.56,0-38.72,3-38.72,20.52,0,14.09,16.89,19.77,28.84,19.77v2.48c-14,0-31.93-5.19-31.93-23.49,0-19,19.77-31.64,40.58-31.64,22.66,0,35.84,14.59,35.84,31.64,0,37.58-62.83,75.9-62.83,117.67,0,11.87,5.15,15.33,12.36,15.33,48.41,0,82-161.92,119.27-161.92,8.86,0,13,8.16,13,18.79,0,41.53-54.59,93.94-54.59,129,0,9.89,6.18,12.61,13.6,12.61C969,190.6,1039.62,105.8,1039.62,61.8Z"/><path class="cls-1" d="M1107.2,178c-.21,16.81-3.71,30.16-14.83,30.16-9.27,0-14.63-8.9-14.63-27.19v-9.89c-5.56,24.47-16.07,37.08-29.46,37.08-13.59,0-21-13.1-21-28.68,0-30.65,27.81-45,50.47-58.09V107.29c0-21.51-6.59-29.17-17.51-29.17-8.86,0-15.65,5.19-15.65,14.34,0,5.93,2.88,8.15,2.88,13.34s-2.47,8.66-7,8.66c-5.57,0-8.45-5.69-8.45-13.6,0-17.3,13-31.15,30.28-31.15,15.45,0,26.78,11.13,26.78,37.33v75.89c0,13.6,2.68,16.57,6,16.57,4.33,0,7.63-4.95,7.83-21.51Zm-29.46-20V128.55c-18.54,11.86-38.52,24-38.52,47.46,0,11.13,4.12,19.53,12.56,19.53C1061.05,195.54,1071.35,184.91,1077.74,158Z"/><path class="cls-1" d="M1175.59,196.28l-22.66,11.87-2.89-3V185.41h-.82c-4.94,13.59-13.39,22.74-25.75,22.74-19.57,0-29.87-28.68-29.87-65.51,0-39.31,12-72.68,34.2-72.68,10.09,0,17.51,4.94,22,13.6h.2V29.91c0-15.33.42-18-11.94-11.37l-1.86-4.7,23.28-12.6L1161.58,4V179.72c0,15.57-.21,18.29,12.15,11.87ZM1150,174V124.84c0-26.7-7.21-45.24-20.8-45.24-17.1,0-23.28,28.92-23.28,57.85,0,33.12,6.59,58.34,21.43,58.34C1138.51,195.79,1144.89,185.16,1150,174Z"/><path class="cls-1" d="M1237.8,152c-3.3,39.31-16.68,56.12-33.16,56.12-21.22,0-33.58-27.94-33.58-67,0-39.31,12.77-71.2,34.4-71.2,19.78,0,31.11,25,31.11,61.8H1183v4.7c0,32.38,9.06,59.08,25.33,59.08,9.48,0,20.4-9.64,25.14-43.51Zm-54.38-28.67h41c0-22.5-4.94-45-18.74-45C1192.28,78.36,1185.27,99.13,1183.42,123.36Z"/><path class="cls-1" d="M141.82,277.36c0-15.08-1.85-18.54-21.42-18.54v-5.19H176v5.19c-19.78,0-21.63,3.46-21.63,18.54v150.3c0,15.08,1.85,18.54,21.63,18.54v5.19H120.4V446.2c19.57,0,21.42-3.46,21.42-18.54Z"/><path class="cls-1" d="M185.49,446.7c-2.68-2.48-4.32-1.73-5.35,1.23l-1.45,4.95h-4.12l-1-51.92h3.92c2.68,31.15,14.21,46,27.39,46,10.3,0,15.66-9.39,15.66-23.23,0-12.61-4.74-17.8-23.48-37.58-16.48-17.06-22.25-25.46-22.25-38.81,0-17.55,10.09-30.16,24.72-30.16,8.65,0,14.42,4.7,17.71,8.16,2.68,3,4.74,1.73,5.15-1.24l.83-5.19h4.12l.41,41.53H223.6c-1.65-19.28-9.48-34.86-23.28-34.86-8.86,0-15.24,7.67-15.24,19s6.18,17.8,19.57,31.4C223,394.78,231,405.17,231,422.22c0,22-11.75,33.13-25.34,33.13C196.62,455.35,189.41,450.4,185.49,446.7Z"/><path class="cls-1" d="M505.79,333.72c0,62.3-65.5,118.91-148.52,118.91-50.06,0-84.46-20.52-84.46-61.55,0-53.4,57.89-114,123.81-114,14.83,0,28.22,3.22,44.49,13.85,9.06-4.21,17.51-6.43,25.34-6.43C488.9,284.53,505.79,302.08,505.79,333.72Zm-3.09-.49c0-25-13.18-33.87-38.11-33.87-28.84,0-51.08,11.37-95.17,52.41l-1.44-2c25.55-26.7,47.79-45.49,66.95-55.87-10.3-3.21-27.4-4.45-37.9-4.45-69,0-121.13,56.86-121.13,99.87,0,37.09,38.32,49.69,80.75,49.69C443.58,439,502.7,385.88,502.7,333.23Z"/><path class="cls-1" d="M568.63,344.11c3.5-14.84,3.71-17.56-10.3-17.56v-5.19h34v5.19c-9.68,0-13,2.72-16.69,17.56L548.44,453.62h-6.39l-27-109.51c-3.71-14.84-6.8-17.56-15.86-17.56v-5.19h38.72v5.19c-14,0-13.8,2.72-10.3,17.56l19.57,82.81h1Z"/><path class="cls-1" d="M645.05,399.23c-3.29,39.31-16.68,56.12-33.16,56.12-21.22,0-33.58-27.94-33.58-67,0-39.31,12.77-71.2,34.4-71.2,19.78,0,31.11,25,31.11,61.8H590.26v4.7c0,32.38,9.06,59.08,25.33,59.08,9.48,0,20.4-9.64,25.14-43.51Zm-54.38-28.67h41c0-22.5-4.94-45-18.74-45C599.53,325.56,592.52,346.33,590.67,370.56Z"/><path class="cls-1" d="M702.73,326.8c0,7.17-3.91,11.12-7.41,11.12-2.89,0-4.33-1.48-6.18-3.95-2.06-2.47-3.09-3.46-5.36-3.46-4.74,0-10.3,7.66-15.86,24.23v72.43c0,15.82,2.27,18.79,20.4,18.79v5.43H643.41V446.2c11.74,0,13.39-3.21,13.39-18.54V345.34c0-15.57,0-18.29-11.95-12.61L643.2,328l22.25-10.88,2.47,2.72v22h.62c5.77-13.84,14.63-24.72,24.72-24.72C699.23,317.16,702.73,321.12,702.73,326.8Z"/><path class="cls-1" d="M753.41,398.74c0,36.09-4.95,56.61-22.66,56.61-14,0-20.81-11.13-20.81-44V329.77H695.11V322.6c14.63-.25,20.19-14.83,21-36.09h5.15v34.85h25.14v8.41H721.48v72.92c0,24,1,41,12.36,41,9.89,0,14.83-14.09,14.83-45Z"/><path class="cls-1" d="M810.68,452.38l-.42-19.77-.61-.25c-6.39,12.11-17.1,23-29.67,23-13.39,0-19.57-13.6-19.57-33.13V347.07c0-15.32,0-18-12.36-12.85l-1.44-5,23.07-9.64,2.27,2.72v98.14c0,15.33,4.33,22.75,12.57,22.75,9.06,0,18.74-8.66,25.74-19.29V347.07c0-15.32,0-18-12.35-12.85l-1.45-5,23.07-9.64,2.27,2.72V426.92c0,15.57-.21,18.29,12.36,11.87l1.65,4.94-16.28,8.16-6.18,3.21Z"/><path class="cls-1" d="M891.22,326.8c0,7.17-3.91,11.12-7.42,11.12-2.88,0-4.32-1.48-6.18-3.95-2-2.47-3.08-3.46-5.35-3.46-4.74,0-10.3,7.66-15.86,24.23v72.43c0,15.82,2.26,18.79,20.39,18.79v5.43H831.89V446.2c11.75,0,13.39-3.21,13.39-18.54V345.34c0-15.57,0-18.29-11.94-12.61L831.69,328l22.25-10.88,2.47,2.72v22H857c5.76-13.84,14.62-24.72,24.72-24.72C887.72,317.16,891.22,321.12,891.22,326.8Z"/><path class="cls-1" d="M886.49,446.2c11.74,0,13.39-3.21,13.39-18.54V345.34c0-15.57.2-18.29-12-12.36L886.28,328l22.25-10.88,2.68,2.72v20.76h.61c8.86-13.84,17.1-23.48,29.46-23.48,14.63,0,20.81,13.35,20.81,33.37v77.13c0,15.33,1.44,18.54,13.18,18.54v5.19H937.78V446.2c11.53,0,13-3.21,13-18.54V351.27c0-14.83-5.15-21.75-13.6-21.75-9.89,0-17.71,8.16-25.95,19.53v78.61c0,15.33,1.44,18.54,13,18.54v5.19H886.49Z"/><path class="cls-1" d="M1037.48,399.23c-3.3,39.31-16.69,56.12-33.17,56.12-21.21,0-33.57-27.94-33.57-67,0-39.31,12.77-71.2,34.4-71.2,19.77,0,31.1,25,31.1,61.8H982.68v4.7c0,32.38,9.07,59.08,25.34,59.08,9.48,0,20.4-9.64,25.13-43.51ZM983.1,370.56h41c0-22.5-4.94-45-18.75-45C992,325.56,985,346.33,983.1,370.56Z"/><path class="cls-1" d="M1121.52,443.48l-22.65,11.87-2.89-3V432.61h-.82c-5,13.59-13.39,22.74-25.75,22.74-19.57,0-29.87-28.68-29.87-65.51,0-39.31,12-72.68,34.19-72.68,10.1,0,17.51,4.94,22,13.6h.2V277.11c0-15.32.41-18-12-11.37l-1.85-4.7,23.28-12.6,2.06,2.72V426.92c0,15.57-.21,18.29,12.15,11.87ZM1096,421.23V372c0-26.7-7.21-45.24-20.8-45.24-17.1,0-23.28,28.92-23.28,57.85,0,33.12,6.59,58.34,21.42,58.34C1084.45,443,1090.83,432.36,1096,421.23Z"/></g></g></svg>