<svg xmlns="http://www.w3.org/2000/svg" viewBox="0 0 1000 820.62"><defs><style>.cls-1{fill-rule:evenodd;}</style></defs><title>mo-fill-frame</title><g id="Layer_2" data-name="Layer 2"><g id="svg"><path id="MO" class="cls-1" d="M601.21,37.39,558.53,0,370.85,23.41,179.76,40,.76,45.32h0L0,50.6,21.9,92.52l20,14,23.41,41.91,3.4,3.4,8.69,6.8,20.77,14.73,22.66-.76,12.08,21.91-30.59,37.38,31.35,27.95,3.4,17.37,39.27,22.66,21.9,369,.76,22.65,1.89,22.66.75,22.66,1.89,23.42.76,22.65,41.16-2.64,281-22.66,332.32-32.1,16.62,34-38.52,61.18,94.41-14H932v-6.8l1.89-40,17.37-21.91L946,713.37l-.76-.76-.75-.75,3.4-11.33,5.28,1.89,2.65,6.79-.76,2.65v7.55l3.4.76,6.8-8.69v-.76l.75-2.64,22.66-14,3.4-1.89,7.93-71.38-1.89-3.39-2.64-.76-61.94-50.6L943,547.58,925.6,497.73l-31.34-24.54L835,447.13l-37.39-30.59,4.53-62.69,11.33-58.53-62.68,3.4-19.26-20-8.69-40-99.32-83.84L595.54,77l6.8-38.52h0l-1.13-1.13Z"/></g></g></svg>