<?xml version="1.0" encoding="utf-8"?>
<!-- Generator: Adobe Illustrator 26.5.0, SVG Export Plug-In . SVG Version: 6.00 Build 0)  -->
<svg version="1.1" id="Layer_1" xmlns="http://www.w3.org/2000/svg" xmlns:xlink="http://www.w3.org/1999/xlink" x="0px" y="0px"
	 viewBox="0 0 267 219.4" style="enable-background:new 0 0 267 219.4;" xml:space="preserve">
<style type="text/css">
	.st0{fill:none;stroke:#DCF381;stroke-width:2;stroke-linejoin:round;}
	.st1{opacity:0.89;fill:#DCF381;enable-background:new    ;}
	.st2{font-family:'Inter-Bold';}
	.st3{font-size:16px;}
</style>
<g id="Layer_2_00000133526188029532027520000005706324201237823384_">
	<g id="svg">
		<path id="MO" class="st0" d="M160.2,10.9L148.9,1L99.2,7.2l-50.6,4.4L1.2,13l0,0L1,14.4l5.8,11.1l5.3,3.7l6.2,11.1l0.9,0.9
			l2.3,1.8l5.6,4l6-0.2l3.2,5.8l-8.1,9.9l8.3,7.4l0.9,4.6l10.4,6l5.8,97.7l0.2,6l0.5,6l0.2,6l0.5,6.2l0.2,6l10.9-0.7l74.4-6l88-8.6
			l4.4,9l-10.1,16.2l24.9-3.7h0.2v-1.9l0.5-10.6l4.6-5.8l-1.4-6.5l-0.2-0.2l-0.2-0.2l0.9-3l1.4,0.5l0.7,1.9l-0.2,0.7v2.1l0.9,0.2
			l1.8-2.3v-0.2l0.2-0.7l6-3.7l0.9-0.5l2.1-19l-0.5-0.9l-0.7-0.2l-16.4-13.4l2.5-4.9l-4.6-13.2l-8.4-6.5l-15.7-6.9l-9.9-8.1
			l1.1-16.6l3-15.5l-16.6,0.9l-5.1-5.3l-2.3-10.6l-26.3-22.2l-7.4-20.6l1.9-10.2l0,0L160.2,10.9L160.2,10.9z"/>
		<text transform="matrix(1 0 0 1 114.1328 113.7382)" class="st1 st2 st3">MO</text>
	</g>
</g>
</svg>
