<svg xmlns="http://www.w3.org/2000/svg" viewBox="0 0 265 217.41"><defs><style>.cls-1{fill:#dcf381;fill-rule:evenodd;}.cls-2{font-size:16px;font-family:Inter-Bold, Inter;font-weight:700;letter-spacing:-0.01em;}.cls-2,.cls-3{opacity:0.89;}.cls-3{font-size:20px;font-family:PPEditorialNew-Regular, PP Editorial New;letter-spacing:-0.01em;}</style></defs><title>mo-solid</title><g id="Layer_2" data-name="Layer 2"><g id="svg"><path id="MO" class="cls-1" d="M159.18,9.93,147.86,0,98.19,6.24l-50.6,4.39L.23,12h0L0,13.4,5.78,24.49l5.31,3.7,6.24,11.09.92.92,2.31,1.85L26.11,46l6-.23,3.24,5.77-8.09,9.94,8.32,7.39.92,4.62,10.4,6,5.78,97.73.23,6,.46,6,.23,6,.46,6.23.23,6,10.86-.69,74.4-6,88-8.55,4.39,9L221.8,217.41l24.95-3.7H247v-1.85l.46-10.63,4.62-5.77L250.68,189l-.24-.23-.23-.23.93-3,1.38.46.7,1.85-.23.7v2.08l.92.23,1.85-2.31v-.23l.23-.7,6-3.69.92-.47L265,164.5l-.46-.93-.7-.23-16.4-13.4,2.54-4.85-4.62-13.17L237,125.45l-15.71-6.93-9.93-8.08,1.15-16.64,3-15.48-16.64.93-5.08-5.32L191.53,63.3,165.19,41.12,157.8,20.56l1.85-10.16h0l-.46-.47Z"/><text class="cls-2" transform="translate(111.11 102.8)">MO</text><text class="cls-3" transform="translate(121.12 127.16)">1</text></g></g></svg>