<?xml version="1.0" encoding="utf-8"?>
<!-- Generator: Adobe Illustrator 26.5.0, SVG Export Plug-In . SVG Version: 6.00 Build 0)  -->
<svg version="1.1" id="Layer_1" xmlns="http://www.w3.org/2000/svg" xmlns:xlink="http://www.w3.org/1999/xlink" x="0px" y="0px"
	 viewBox="0 0 267.1 129" style="enable-background:new 0 0 267.1 129;" xml:space="preserve">
<style type="text/css">
	.st0{fill:none;stroke:#DCF381;stroke-width:2;stroke-miterlimit:10;}
	.st1{opacity:0.89;fill:#DCF381;enable-background:new    ;}
	.st2{font-family:'Inter-Bold';}
	.st3{font-size:16px;}
</style>
<g id="Layer_2_00000142877467101538118980000005379072720604148625_">
	<g id="svg">
		<path id="OK" class="st0" d="M255.4,15.3l-0.4-4.9l-0.2-4.7l-0.4-4.7l-6.8,0.5L178,4.9L80.2,6.3L38.5,5.8l-7.7-0.2h-2.9L16.5,5.2
			L12.9,5L5.4,4.9L1.8,4.7L1.6,9.4L1.4,14l-0.2,4.7L1,23.6h1.1l43.6,1.1l46.1,0.5l0.5,61.6l3.2,10.8l7.2,6.8l7.7,0.4l1.6-3.2
			l10.6,9.7l13.9,1.4l2.5,2.9l5-2.3l12.6,5.9v3.4l4.7-0.2l4.9-4.1l9,5.8l8.5,3.1l5.8-7.9l18.4,8.6l6.8-5.6l5.6-2.2l4.5,1.1l16.9-4.9
			l9,3.8l8.1,5.2l7,1.3h0.2l-0.2-8.1l-2-49l-0.2-8.1l-7-36.4l-1.1-5L255.4,15.3L255.4,15.3z"/>
		<text transform="matrix(1 0 0 1 165.9368 64.445)" class="st1 st2 st3">OK</text>
	</g>
</g>
</svg>
