<?xml version="1.0" encoding="UTF-8"?><svg id="Layer_2" xmlns="http://www.w3.org/2000/svg" viewBox="0 0 265 126.9"><defs><style>.cls-1{fill:#2bc607;}</style></defs><g id="Layer_1-2"><g id="Layer_2-2"><g id="svg"><path id="OK" class="cls-1" d="M254.4,14.3l-.4-4.9-.2-4.7-.4-4.7-6.8,.5-69.6,3.4-97.8,1.4-41.7-.5-7.7-.2h-2.9l-11.4-.4-3.6-.2-7.5-.1-3.6-.2-.2,4.7-.2,4.6-.2,4.7-.2,4.9H1.1l43.6,1.1,46.1,.5,.5,61.6,3.2,10.8,7.2,6.8,7.7,.4,1.6-3.2,10.6,9.7,13.9,1.4,2.5,2.9,5-2.3,12.6,5.9v3.4l4.7-.2,4.9-4.1,9,5.8,8.5,3.1,5.8-7.9,18.4,8.6,6.8-5.6,5.6-2.2,4.5,1.1,16.9-4.9,9,3.8,8.1,5.2,7,1.3h.2l-.2-8.1-2-49-.2-8.1-7-36.4-1.1-5-.1-4.7h0Z"/></g></g></g></svg>