<svg xmlns="http://www.w3.org/2000/svg" viewBox="0 0 265 126.74"><defs><style>.cls-1{fill:#dcf381;fill-rule:evenodd;}.cls-2{font-size:16px;font-family:Inter-Bold, Inter;font-weight:700;}.cls-2,.cls-3{letter-spacing:-0.01em;opacity:0.89;}.cls-3{font-size:20px;font-family:PPEditorialNew-Regular, PP Editorial New;}</style></defs><title>ok-solid</title><g id="Layer_2" data-name="Layer 2"><g id="svg"><path id="OK" class="cls-1" d="M254.38,14.22,254,9.36l-.18-4.68L253.48,0l-6.84.54L177,3.78,79.21,5.22,37.45,4.68,29.7,4.5H26.82L15.48,4.14,11.88,4,4.32,3.78.72,3.6.54,8.28.36,13,.18,17.64,0,22.5H1.08l43.57,1.08,46.08.54.54,61.57,3.24,10.8,7.21,6.85,7.74.36,1.62-3.25,10.62,9.73,13.86,1.44,2.52,2.88,5-2.34,12.6,5.94v3.42l4.68-.18,4.86-4.14,9,5.76,8.46,3.06,5.76-7.92,18.36,8.64,6.84-5.58,5.58-2.16,4.5,1.08,16.93-4.86,9,3.78,8.1,5.22,7,1.26H265l-.18-8.1-2-49-.18-8.1-7-36.37-1.08-5-.18-4.68Z"/><text class="cls-2" transform="translate(164.1 51.19)">OK</text><text class="cls-3" transform="translate(170.05 75.55)">0</text></g></g></svg>