<?xml version="1.0" encoding="UTF-8"?><svg id="Layer_2" xmlns="http://www.w3.org/2000/svg" viewBox="0 0 738 267.68"><defs><style>.cls-1{letter-spacing:-.02em;}.cls-1,.cls-2,.cls-3{font-family:FreightTextCmpProBook-Regular, 'FreightTextCmp Pro';}.cls-4,.cls-5,.cls-6{font-family:FreightTextCmpProBook-Italic, 'FreightTextCmp Pro';}.cls-7{fill:#a0dc00;}.cls-8{fill:none;stroke:#000;stroke-width:2px;}.cls-9{fill:#000e04;font-size:64px;}.cls-10,.cls-5{letter-spacing:0em;}.cls-3{letter-spacing:.02em;}.cls-11,.cls-6{letter-spacing:0em;}</style></defs><g id="Layer_1-2"><g id="Layer_2-2"><g id="Layer_1-2"><ellipse class="cls-7" cx="369" cy="133.84" rx="369" ry="133.84"/><path class="cls-8" d="M719.4,133.84c0,16.16-9.62,31.67-27.27,45.89s-43.26,27.06-75,37.87c-63.46,21.61-151.19,35-248.14,35s-184.68-13.39-248.14-35c-31.73-10.81-57.33-23.66-75-37.87s-27.25-29.73-27.25-45.89,9.62-31.67,27.27-45.84c17.65-14.17,43.26-27.06,75-37.87C184.33,28.52,272.06,15.13,369.01,15.13s184.68,13.39,248.14,35c31.73,10.81,57.33,23.66,75,37.87s27.25,29.68,27.25,45.84Z"/></g><text class="cls-9" transform="translate(159.56 127.7)"><tspan class="cls-4" x="0" y="0">Sin</tspan><tspan class="cls-6" x="69.5" y="0">c</tspan><tspan class="cls-5" x="90.24" y="0">e</tspan><tspan class="cls-6" x="112.64" y="0">r</tspan><tspan class="cls-4" x="135.04" y="0">ely</tspan><tspan class="cls-2" x="194.94" y="0">, e</tspan><tspan class="cls-1" x="243.96" y="0">v</tspan><tspan class="cls-2" x="267.9" y="0">e</tspan><tspan class="cls-3" x="291.96" y="0">r</tspan><tspan class="cls-1" x="314.62" y="0">y</tspan><tspan class="cls-2" x="338.68" y="0">one</tspan><tspan class="cls-2"><tspan class="cls-10" x="50.37" y="56">w</tspan><tspan x="88.51" y="56">ith an u</tspan><tspan class="cls-11" x="255.29" y="56">t</tspan><tspan x="272.57" y="56">erus</tspan></tspan></text></g></g></svg>