<?xml version="1.0" encoding="utf-8"?>
<!-- Generator: Adobe Illustrator 26.5.0, SVG Export Plug-In . SVG Version: 6.00 Build 0)  -->
<svg version="1.1" id="Layer_1" xmlns="http://www.w3.org/2000/svg" xmlns:xlink="http://www.w3.org/1999/xlink" x="0px" y="0px"
	 viewBox="0 0 267.7 250.4" style="enable-background:new 0 0 267.7 250.4;" xml:space="preserve">
<style type="text/css">
	.st0{fill:none;stroke:#A0DC00;stroke-width:2;stroke-miterlimit:10;}
	.st1{opacity:0.89;fill:#A0DC00;enable-background:new    ;}
	.st2{font-family:'Inter-Bold';}
	.st3{font-size:16px;}
</style>
<g id="Layer_2_00000034073729806475058650000015967989512473536440_">
	<g id="svg">
		<path id="TX" class="st0" d="M196.4,244.3l-5.4-20.4v3.8L196.4,244.3z M195.2,208.5l-3.8,7.2l-0.4,2.4L195.2,208.5L195.2,208.5z
			 M198.2,203.2l3.6-4.7l-2.6,1.6L198.2,203.2z M211,191.7l-8.4,4.4l2.4-0.4L211,191.7z M212.1,190.2l2.4-1.9l-0.9,0.2L212.1,190.2z
			 M78.6,1.3l-0.8-0.1L74,106.7l-22.3-1l-35.7-2l-14.3-1l2.8,5.5l0.1,0.1l12.2,12.2l7,8.2l9.2,6.9l6.5,11.9L42,160l5.3,3.5l4.2,4.6
			l6,2.1l8.7,5.5l3.9,1.4l5.4-5.4l1.7-5.7l2.8-5.5l8.8-3.5l3.4,1.7l9.8,0.8l8.9,5.5l6.1,1.1l-1.7,3.1l3.5,2.2l3.3,3.9l0.7,4.2
			l2.1,2.8l5,11.9l5,4.2l3.8,6.3l4.8,5l2.1,0.7l1.8,12.8l5.3,2.9l0.2,4l1.4-0.3l9.2,11.3l4.6,1l5.9,3.5h9l6.5,3.6l7.8-1.7l-3.5-3.3
			l-3.2-9.4l-1.2-8.2l-1.8-2.7l0.8-5.5l-2.4-0.2l-3.2-5.2l3.6,3.8l4.2-1.5l2.2-6l-4.5-6.1l6.8,0.8l3.1-4.8l-0.4-1.7l2.8-3.7
			l-0.7,3.3l3.1-2.5l-1.2-4.4l4,2.1l5.3-2.9l-5.1-5.3l3.1,1.2l5.9,0.3l7.7-1.7l8.6-5.7l5.2-4.3l0.8-3.1l3.1-3.3l-1.7-5.4l0.3-3.4
			l5.6-2.5l-0.4,6h3.4l-3.7,3.1l15-7.9l2.5-0.1l1.6-7.2h0.5l1.7-4.2l0.8-12.8l1-5.2l-3-9.3l-3.6-6.3l-0.1-3l-3.7-5.2l-2.2-21.7
			l-0.1-2.7l-0.2-2.8l-0.7-9.9l-6.8,0.2l-1.7-1.8l-0.3-0.1h-0.1l-4.4-0.8l-5.1-3.3l-5.6-2.4l-10.6,3l-2.8-0.7l-3.5,1.4l-4.3,3.5
			L196.4,61l-3.6,5l-5.3-1.9l-5.6-3.6l-3,2.6l-2.9,0.1V61l-7.9-3.7l-3.1,1.5l-1.6-1.8l-8.7-0.9L148,50l-1,2l-4.8-0.2l-4.5-4.3
			l-2-6.8l-0.3-38.5l-28.8-0.3L79.3,1.3H78.6z"/>
		<text transform="matrix(1 0 0 1 137.72 127.8926)" class="st1 st2 st3">TX</text>
	</g>
</g>
</svg>
