<svg xmlns="http://www.w3.org/2000/svg" viewBox="0 0 265 248.23"><defs><style>.cls-1{fill:#dcf381;fill-rule:evenodd;}.cls-2{font-size:16px;font-family:Inter-Bold, Inter;font-weight:700;letter-spacing:-0.01em;}.cls-2,.cls-3{opacity:0.89;}.cls-3{font-size:20px;font-family:PPEditorialNew-Regular, PP Editorial New;letter-spacing:-0.01em;}</style></defs><title>tx-solid</title><g id="Layer_2" data-name="Layer 2"><g id="svg"><path id="TX" class="cls-1" d="M194.75,243.16l-5.4-20.38v3.83Zm-1.23-35.8-3.83,7.21-.45,2.36,4.28-9.57Zm3-5.29,3.61-4.73-2.59,1.58Zm12.73-11.48L200.83,195l2.37-.45ZM210.4,189l2.37-1.91-.91.22ZM76.89.11,76.1,0,72.27,105.59l-22.29-1-35.68-2-14.3-1,2.81,5.52.12.11,12.16,12.16,7,8.22,9.24,6.86,6.53,11.94,2.47,12.49,5.29,3.49L49.76,167l6,2.14,8.67,5.51,3.94,1.47,5.41-5.41,1.68-5.74,2.82-5.51L87,155.92l3.38,1.68,9.79.79,8.89,5.52,6.08,1.12-1.68,3.16,3.48,2.25,3.27,3.94.67,4.16,2.14,2.82,5,11.93,4.95,4.17,3.83,6.3,4.84,5,2.14.68,1.8,12.83,5.29,2.93.22,4,1.36-.34,9.23,11.26,4.61,1,5.86,3.49h9l6.53,3.61,7.77-1.69-3.49-3.27-3.15-9.45-1.24-8.22-1.8-2.7.79-5.52-2.37-.22L181,212l3.6,3.83,4.17-1.47,2.25-6-4.5-6.08,6.75.78,3.15-4.84-.45-1.69,2.82-3.71-.68,3.26,3.15-2.47L200,189.24l4.06,2.14,5.18-2.93-5.07-5.29,3.15,1.24,5.86.33,7.65-1.68,8.56-5.75L234.6,173l.79-3.16,3.15-3.26-1.68-5.4.33-3.38,5.63-2.48-.45,6h3.38L242,164.47l15-7.88,2.47-.11,1.58-7.21h.45l1.69-4.16.79-12.84,1-5.17-2.93-9.23-3.6-6.31-.11-3-3.72-5.18-2.25-21.72-.11-2.71-.23-2.81-.67-9.91-6.76.23-1.68-1.8-.34-.12h-.12l-4.39-.78L233,60.45l-5.63-2.36-10.58,3L214,60.45l-3.49,1.35-4.27,3.49-11.49-5.4-3.6,5-5.29-1.91-5.63-3.6-3,2.59-2.93.11V59.89l-7.88-3.72-3.15,1.47-1.57-1.8-8.67-.9-6.64-6.08-1,2-4.84-.22L136,46.38l-2-6.75-.33-38.5L104.81.79,77.56.11Z"/><text class="cls-2" transform="translate(136.02 111.93)">TX</text><text class="cls-3" transform="translate(141.52 136.29)">6</text></g></g></svg>