<svg xmlns="http://www.w3.org/2000/svg" viewBox="0 0 856.42 544.45"><defs><style>.cls-1{fill:#7596ce;}</style></defs><title>us-map-icon</title><g id="Layer_2" data-name="Layer 2"><g id="Layer_1-2" data-name="Layer 1"><g id="Layer_2-2" data-name="Layer 2"><g id="Layer_1-2-2" data-name="Layer 1-2"><g id="Layer_2-2-2" data-name="Layer 2-2"><g id="svg"><path class="cls-1" d="M807.63,12a.59.59,0,0,1,.22.05l7.09,3.69a.47.47,0,0,1,.21.23l9.79,20.91a.34.34,0,0,1,0,.2v3.64l3.12,1.09,3.05-.92a.39.39,0,0,1,.15,0,.47.47,0,0,1,.28.09.5.5,0,0,1,.2.39v2.22l1.79,3.66,5,1a.6.6,0,0,1,.25.13l2.29,2.29v-.13l.68-1.27a.5.5,0,0,1,.43-.25h.09a.48.48,0,0,1,.39.42l.12,1.15h.14l.78.09a.5.5,0,0,1,.42.4l.29,1.85a.49.49,0,0,1-.32.54h-.16a.52.52,0,0,1-.25-.07l-.16-.16v0L843,52.4a.46.46,0,0,1-.12.23l.6.6a.49.49,0,0,0,.16.16h0a.48.48,0,0,1,.1.53l-2.13,5.15-.11.15a.47.47,0,0,1,.13.45.48.48,0,0,1-.47.38h-.65l-3.89,3.19a.47.47,0,0,1-.3.1h-.12L835,63.07l-.42,3.83a.48.48,0,0,1-.31.4l-7,2.67.05.76.26-.44a.54.54,0,0,1,.34-.23H828a.49.49,0,0,1,.48.42l.1.78a.5.5,0,0,1-.24.48.54.54,0,0,1-.25.06h0v.11a.48.48,0,0,1-.44.29l.28,1.46h0a.49.49,0,0,1-.45.53H827l.29,1.06a.5.5,0,0,1-.25.57l-1.17.58h-.21a.49.49,0,0,1-.43-.71l.81-1.53-3.21.21-.1,1.46a.48.48,0,0,1-.42.45h-.06a.47.47,0,0,1-.46-.33l-.11-.34-1.09,6.19a.52.52,0,0,1-.1.23l-3.69,4.46a.37.37,0,0,1-.17.13l-.87.41.68,1a.49.49,0,0,1,.07.39.48.48,0,0,1-.26.31.37.37,0,0,1-.2.07c-.15,0-.36-.16-1.08-.7a.47.47,0,0,1-.19-.38h-.09a.41.41,0,0,1-.26-.09l-3.23,1.51-1.49,4.56.66.66a.46.46,0,0,1,.14.43l-1,5.15a.51.51,0,0,1-.1.21L808,102l-.09,5.29a.52.52,0,0,1-.29.41.44.44,0,0,1,.09.31l-.29,2.52V112l1.25,3,3,.18a.44.44,0,0,1,.31.13.49.49,0,0,1,0,.68l-3,3.2,3,4.53,7,7.44,3.22-.26,2.84-2.16-.61-3a.48.48,0,0,1,.31-.56.45.45,0,0,1,.16,0,.47.47,0,0,1,.43.27l2.62,5.15a.48.48,0,0,1-.2.64l.2.78.07,1.43a.5.5,0,0,1-.44.52.49.49,0,0,1-.48-.42l-.25-1.85-5.11,2.72-.8,1.79a.48.48,0,0,1-.44.29.45.45,0,0,1-.16,0l-3.47-1.16-4.31,5.23-.56,1.12a.49.49,0,0,1-.42.27.52.52,0,0,1-.44-.25l-.15-.27a.49.49,0,0,1-.36.23l-1.36.09h-.15v1a.49.49,0,0,1-.4.5h-.2l.11.85a.5.5,0,0,1-.18.44l-4.6,3.64-.15.23-.06.08-.29.29a.4.4,0,0,1-.15.1l-.66.29-.38.58-.84.85a.48.48,0,0,1-.34.14h0a.48.48,0,0,1-.32-.13.47.47,0,0,1-.1-.57l-11.51,5.15a.43.43,0,0,1-.19,0,.5.5,0,0,1-.44-.27l-.22-.45L785.7,158l-5.56,5.34-.51,2.09,2.35-2,.12-.08,9.92-4.24,6.44-6a.52.52,0,0,1,.64,0,.49.49,0,0,1,.11.63l-.52.85.32.08a.49.49,0,0,1,.33.28h0a.48.48,0,0,1-.26.63l-1.34.58-1.64,2.71.9-.37,7.16-5.45a.51.51,0,0,1,.28-.09.46.46,0,0,1,.35.14.49.49,0,0,1,0,.68l-10.29,9.71a.39.39,0,0,1-.1.08h-.07a.5.5,0,0,1-.13.19L789.34,168a.47.47,0,0,1-.31.12h0a.42.42,0,0,1-.33-.16h0a.48.48,0,0,1,0-.68l2-1.79-3,1.61-6,4.9-.13.07-4.17,1.65h-.09a1,1,0,0,1-.34-.06.49.49,0,0,1-.23-.36l-.3-2.2h0a.47.47,0,0,1-.47-.37l-.1,1.16a.53.53,0,0,1,.17.08h0a.49.49,0,0,1,.07.69l-.7,1-.63,2.5,3.93-.09a.49.49,0,0,1,.48.39l.68,3.4v10.47a.61.61,0,0,1,0,.19l-2,4.6.33,1.26a.48.48,0,0,1,.22-.12h.09a.52.52,0,0,1,.46.3l.48,1.17a.51.51,0,0,1,0,.45.48.48,0,0,1-.41.22h-.29l.15.55a.5.5,0,0,1-.2.53l-2.52,1.71-.37,5.11a.5.5,0,0,1-.09.24l-2.62,3.69a.44.44,0,0,1-.36.19h0a.49.49,0,0,1-.49-.46l-.09-4.13L761,202.05h-.11v.27L772,212.94a.57.57,0,0,1,.12.18l2.5,6.55a.54.54,0,0,1,.05.22v.68a.45.45,0,0,1-.35.46l.24,1a.24.24,0,0,1,0,.12v.29a.43.43,0,0,1,0,.16l-.21.63h.11a.49.49,0,0,1,.41.55l-.78,5.65-.49,2.43-.4,1.13a.47.47,0,0,1-.45.32h-.13a.49.49,0,0,1-.36-.52H772a.44.44,0,0,1-.33-.26l-.66,2.9-2.53,7.9-1.35,6a.5.5,0,0,1-.44.38h0a.49.49,0,0,1-.46-.32l-.87-2.33a.49.49,0,0,1,0-.24l2.26-14a.37.37,0,0,1-.2-.12l-2-2.25-3.07.09a.54.54,0,0,1-.36-.14.55.55,0,0,1-.14-.37l.12-2.76-1,1.67a.49.49,0,0,1-.42.24.39.39,0,0,1-.15,0l-3.5-1.17a.51.51,0,0,1-.27-.23l-2.14-4a.58.58,0,0,1,0-.41.47.47,0,0,1,.3-.28l2.76-.92-3.46-1.27a.49.49,0,0,1-.27-.26.5.5,0,0,1,0-.38l1.6-3.85-.6-3.75-.89,1.88a.39.39,0,0,1-.18.18h0a.46.46,0,0,1-.23.06.48.48,0,0,1-.42-.25l-1.65-2.82a.45.45,0,0,1-.07-.28l.25-3.51-.27,1a.4.4,0,0,1-.16.24l-1.84,1.51,1.88,4a.39.39,0,0,1,0,.26l-.48,3.89,1.79,6.67,2.24,2.24a.49.49,0,0,1,.09.56.56.56,0,0,1-.21.22l.51.17a.5.5,0,0,1,.3.3l1.64,4.68a.48.48,0,0,1-.12.52.5.5,0,0,1-.33.12.52.52,0,0,1-.21,0l-3.89-1.8-5.92-.29a.41.41,0,0,1-.24-.08l-1.8-1.16,2.26,2,5.56.38h.14l6.6,2.52a.31.31,0,0,1,.1.05h0a.47.47,0,0,1,.14.65l-.77,1.3.83,4.28a.47.47,0,0,1-.18.48h.93a.47.47,0,0,1,.45.32l1.65,4.46a.49.49,0,0,1-.46.66h0l-2-.13,3.69,4.68a.48.48,0,0,1,0,.56l-1.39,2.17.57-.47a.7.7,0,0,1,.23-.11l5-.87H768a.49.49,0,0,1,.41.22l4,6.12.4.79,9,13.25a.44.44,0,0,1,.07.19H782a.47.47,0,0,1,.46.33l1.84,5.63v.12l.29,5.15a.5.5,0,0,1-.42.51h-.08a.47.47,0,0,1-.46-.39L781.49,275h-.1a.52.52,0,0,1-.35-.14l-4.17-4.18-.08-.09-4.88-8.26a.45.45,0,0,1-.33.15h-.83l1.25,1.09.08.09,3.21,4.76a.51.51,0,0,1,0,.6.48.48,0,0,1-.35.16.55.55,0,0,1-.25-.07l-2.52-1.46-1,2.77a.46.46,0,0,1-.34.29l-4.14,1-.15,1.32a.54.54,0,0,1-.15.29l-2.47,2.41,7.29-3a.39.39,0,0,1,.15,0,.36.36,0,0,1,.14,0l1.26.29a.46.46,0,0,1,.36.35l.28,1a.27.27,0,0,1,.09-.12l2.23-2a.48.48,0,0,1,.34-.14.47.47,0,0,1,.33.14l2.23,2.14a.48.48,0,0,1,.15.32l.29,5.34a.48.48,0,0,1-.36.49l-1.54.43-1.84,3.6a1.15,1.15,0,0,1-.14.17l-2.63,1.94a.5.5,0,0,1-.24.09l-3.2.29-.13,0-.13,0-2.38-1.19L760.39,287l8,1.27a.56.56,0,0,1,.36.26.47.47,0,0,1,0,.43l-1.5,3.2,1.23,1.31v.07a.47.47,0,0,1-.12.65l-3.51,2.58h2.26l3.83-1.28,1-2a.49.49,0,0,1,.42-.24h.06a.49.49,0,0,1,.43.54l-.82,5.4.16-.72a.36.36,0,0,1,.07-.17l1.94-2.91a.49.49,0,0,1,.43-.26.46.46,0,0,1,.22.06.49.49,0,0,1,.2.65l-2.81,7a.49.49,0,0,1-.45.3h-.14a.46.46,0,0,1-.34-.47l-1.84-.48a.5.5,0,0,1-.3-.25.48.48,0,0,1-.2.14l-2.33.78h-.15l-6,4L759.32,308a.49.49,0,0,1,0,.66l-2.23,2.13a.47.47,0,0,1-.33.14.48.48,0,0,1-.23-.07l-3.27,5.92v.09h.08a.49.49,0,0,1,.3.54l-.29,1.56a.45.45,0,0,1-.14.24V322a.48.48,0,0,1-.3.44l-.25.1h.09a.49.49,0,0,1,.09.65L752,324.4a.47.47,0,0,1-.35.21h0a.48.48,0,0,1-.34-.14l-.19-.2h0a.48.48,0,0,1,0-.68l.8-.81L743,326.4l-.34.25-.08.05-.28.14-3.52,4.48-5.25,9.73-.18,4.84a.52.52,0,0,1-.23.39l-3.09,1.94.39,1.4a.5.5,0,0,1-.18.52l-4.33,3.34.68,1.28a.48.48,0,0,1-.11.6l-7.57,6.41a.44.44,0,0,1-.29.11l-3.63.22,3,2.51a.5.5,0,0,1,.17.38.49.49,0,0,1-.18.38l-2.39,1.87a.47.47,0,0,1-.3.1.46.46,0,0,1-.29-.1l-2.87-2.14,1,2.75a.42.42,0,0,1,0,.27l-.92,4.24a.47.47,0,0,1,0,.43l-3.11,3.82,1.12,1.05h0a.48.48,0,0,1,0,.68L709,379.68a.47.47,0,0,1,.18.29l.42,2.19a.51.51,0,0,1-.29.53h-.19a.51.51,0,0,1-.39-.19l-.68-.87a.55.55,0,0,1-.09-.28l-1,2.84.12.78.31-1.35a.48.48,0,0,1,.47-.35h.06a.47.47,0,0,1,.43.46l.09,2.92a.45.45,0,0,1-.22.42.5.5,0,0,1-.26.08.54.54,0,0,1-.22,0l-.39-.2.22,1.33a.59.59,0,0,1-.06.32l-1.19,2.11.56,10.16a.37.37,0,0,1,.1.23l.47,3,2,2.33a.29.29,0,0,1,.08.14l2.72,6.79,4,8,3,4.71,12.5,15.34a.6.6,0,0,1,.11.34l-.19,3.75,4.11,8a.47.47,0,0,1,.37.22l7.08,11.84v.05a.33.33,0,0,1,0,.14.49.49,0,0,1,0,.17l-.09.1,3.91,6.47a.47.47,0,0,1,.06.15l.38,1.94,1.76,19.08a.54.54,0,0,1,0,.18l-.33,1.17.22.55a.31.31,0,0,1,0,.19.48.48,0,0,1-.48.47h-.11L745.75,506a.49.49,0,0,1-.23.28l-2.29,1.29a.47.47,0,0,1-.35.41l-.39.1h-.16l-.6.34-.13.05a.3.3,0,0,0-.16.05l.16-.05h.07a.46.46,0,0,1,.33.13l.2.2a.48.48,0,0,1,.14.34.5.5,0,0,1-.14.35l-.1.09a.55.55,0,0,1-.24.12.4.4,0,0,1-.29.12h-.16l-.29-.1a.49.49,0,0,1-.26-.23.45.45,0,0,1-.21-.24h-.18l-.19-.1a.55.55,0,0,1-.18-.16L734,511a.45.45,0,0,1-.16,0,.46.46,0,0,1-.36-.17l-2.13-2.43a.48.48,0,0,1-.09-.5.53.53,0,0,1,.42-.3l1.85-.12-.3-.3H733a.48.48,0,0,1-.34-.14l-.49-.49a.5.5,0,0,1,0-.63v-.08l-5.46-7a.41.41,0,0,1-.18.05h-.1l-.48-.1a.47.47,0,0,1-.35-.29.45.45,0,0,1,0-.45l.19-.28-1.06-.28-.14.27a.49.49,0,0,1-.43.27h-.07l-.68-.1a.35.35,0,0,1-.23-.12h-.09a.5.5,0,0,1-.27-.08l-.08,0a.48.48,0,0,1-.22.12h-.11a.48.48,0,0,1-.43-.27l-.1-.19a.49.49,0,0,1,.09-.56l-.87-.23-.14-.05-3.78-2.33a.39.39,0,0,1-.2-.25l-2.71-7.4-4.07-3.21a.51.51,0,0,1-.18-.45l.65-5.19-1,.62a.43.43,0,0,1-.24.08h-.07l-2-.25,1.84,2.49a.47.47,0,0,1,0,.51.51.51,0,0,1-.44.26h-1.72v.07l.49,1.27a.47.47,0,0,1-.13.52.5.5,0,0,1,.17.15l.78,1.17a.5.5,0,0,1,.08.27.48.48,0,0,1-.48.48h0a.4.4,0,0,1-.24-.07l-.49-.29a.49.49,0,0,1-.21-.26l-.29-.87a.49.49,0,0,1,.14-.51.43.43,0,0,1-.23-.25l-.48-1.26a.46.46,0,0,1,.06-.45h-.5a.48.48,0,0,1-.38-.2l-6.23-8.55H699a.48.48,0,0,1-.24-.06l-1.06-.58a.31.31,0,0,1-.11-.09l-.68-.68a.51.51,0,0,1,.38-.83.46.46,0,0,1,.27.09l-.28-.38a.48.48,0,0,1-.06-.46l2.28-5.91-.33-3.32-3.29.07,1.38,4.73a.48.48,0,0,1-.29.59l-.18,0a.51.51,0,0,1-.43-.26l-3.4-6.8a.21.21,0,0,1,0-.11l-.58-2.72a.74.74,0,0,1,0-.21l1.25-5.36-.29-3.24-.17-.11a.51.51,0,0,1-.21-.34.91.91,0,0,1-.16-.11l-.09-.1a.5.5,0,0,1,0-.68l.1-.1a.51.51,0,0,1,.33-.13h.07v-.22h0a.41.41,0,0,1-.24-.08.49.49,0,0,1-.39.29h-.1a.49.49,0,0,1-.45-.3.5.5,0,0,1,.11-.53l.09-.1a.54.54,0,0,1,.3-.13c.18-.19.35-.38.51-.58h.11l-.11-1.3a.38.38,0,0,1-.13-.09l-.39.08h-.1a.48.48,0,0,1-.34-.83l.1-.1a.42.42,0,0,1,.18-.11.27.27,0,0,1,.06-.12l.1-.1-2.44-3.25v.06a.47.47,0,0,1-.47.37h-.2a.5.5,0,0,1-.48-.48V438a.44.44,0,0,1,.23-.41.48.48,0,0,1,.24-.06.46.46,0,0,1,.23.06l-.44-.6-3.48.7.09.13a.48.48,0,0,1,.09.4.49.49,0,0,1-.26.32l-.19.1a.54.54,0,0,1-.22,0,.54.54,0,0,1-.21,0,.47.47,0,0,1-.27-.34l-.09-.49a.48.48,0,0,1,.19-.48l-18.52-14-4.33-.18-12.39,10.27a.51.51,0,0,1-.21.1l-5.34,1.16H644a.49.49,0,0,1-.45-.29l-1.57-3.72-7-3.41-8.29-2.79a.51.51,0,0,1-.31-.3.54.54,0,0,1,0-.43l.66-1-3.69-.56-3.82,1.39v.09a.49.49,0,0,1-.29.62L614.44,426l-5.83,1.65h-.14a.47.47,0,0,1-.45-.34l-.38.33a.57.57,0,0,1-.13.08l-3.1,1.36a.58.58,0,0,1-.19,0,.49.49,0,0,1-.32-.12.48.48,0,0,1-.16-.49l.61-2.24-4.94,2.88a.55.55,0,0,1-.24.07.51.51,0,0,1-.33-.13l-3.3-3a.46.46,0,0,1-.13-.18l-1.25-3.14-.92,6.81a.5.5,0,0,1-.49.39h-.09l-4.26-.85-1.06,1.35a.5.5,0,0,1-.39.18h-.05l-6.91-.77-7.34,1.6-3.41,3.88a.62.62,0,0,1-.11.17.48.48,0,0,1-.37.17l-4.08-.39h-.1L559,433.47l-2.94.09-2.48,4.35,1.27,1,5.8-.37,4.16-2.92a.52.52,0,0,1,.29-.09h.12L567,436h.12a.49.49,0,0,1,.17.67L565,440.37l2.7.48,1.5-3.62a.5.5,0,0,1,.15-.2.57.57,0,0,1,.3-.1.49.49,0,0,1,.39.2l3,4.18a.5.5,0,0,1,0,.5l-2.33,4.75a.47.47,0,0,1-.43.27h-.06l-2.45-.32.07,2.07L570.3,450l7.21,1.83a.59.59,0,0,1,.27.17l1.72,2.17a.48.48,0,0,1-.06.65l-4.36,4.07a.48.48,0,0,1-.34.14.46.46,0,0,1-.23-.06.49.49,0,0,1-.24-.52l.33-1.75-2.77-2.26-6.08-.76a.49.49,0,0,1-.4-.32l-.51-1.53-4.29-1.67.51,5a.45.45,0,0,1-.06.28l-1.94,3.68a.49.49,0,0,1-.4.26h0a.49.49,0,0,1-.4-.21l-.13-.19,0,0,0,0a.36.36,0,0,1,0,.11.49.49,0,0,1-.28.54l-1.06.49h-.21a.47.47,0,0,1-.38-.19.48.48,0,0,1,0-.6l.3-.38h-.31a.49.49,0,0,1-.4-.21.51.51,0,0,1-.07-.43l.1-.29a.47.47,0,0,1,.4-.33h.06a.49.49,0,0,1,.41.21l.19.29a.46.46,0,0,1,0,.48h.68a.48.48,0,0,1,.38.2l-2.38-3.44-3.51,1.88-1.78,2.16a.47.47,0,0,1-.37.18h-3.25l-8.25-2.43a.47.47,0,0,1-.32-.32.48.48,0,0,1,.32-.6l2.68-1-4.83-3.3-2,.7a.41.41,0,0,1-.16,0,.5.5,0,0,1-.41-.23l-2.43-3.79-2.87.7h-.12a.51.51,0,0,1-.31-.11.52.52,0,0,1-.17-.42l.13-1.41L523.07,449l1.48,1.86a.46.46,0,0,1,.09.36.49.49,0,0,1-.19.33l-3.4,2.42a.42.42,0,0,1-.28.1h-.07l-6.7-.87-9.44-2.61-11.89,1.34-.22,1a.48.48,0,0,1-.45.39l-2,.09-12.8,6.74a.45.45,0,0,1-.2,0,.47.47,0,0,1-.35-.15.49.49,0,0,1,0-.69l2.19-1.86h-1.59a.48.48,0,0,1-.35-.16.49.49,0,0,1-.13-.36l.33-4.34-3.86,1.7-.25,2.53,1.32,4.44a.47.47,0,0,1-.12.48l-2.63,2.73-.64,2.59a.49.49,0,0,1-.17.25L466.3,471l-7.41,5a.51.51,0,0,1-.17.07l-6.6,1.46H452l-5.05-.29h-.15l-.66-.26,2.84,3a.51.51,0,0,1,.13.41.47.47,0,0,1-.24.35l-4.47,2.52a.47.47,0,0,1-.46,0l-2.5-1.32.76,2.7a.44.44,0,0,1,0,.32l6.23-3.17a.46.46,0,0,1,.23-.06.49.49,0,0,1,.26.9l-5.24,3.4a.49.49,0,0,1-.17.06l-2,.39h-.09a.49.49,0,0,1-.46-.32l-1.56,1.23a.43.43,0,0,1-.29.1H439a.49.49,0,0,1-.37-.57l.15-.71-1,1.3.33,1.23a.49.49,0,0,1-.06.39l-2.72,4.17a.5.5,0,0,1-.42.22h0l-4.71-.55,3.21,4.33a.47.47,0,0,1,.07.46L432,501.5l2.67-5h0a.49.49,0,0,1,.43-.26.42.42,0,0,1,.22,0h0a.47.47,0,0,1,.2.63l-3.69,8.25a.48.48,0,0,1-.44.29h-.15a.51.51,0,0,1-.33-.56l.33-1.73h-.08l-3.59,1.26a.45.45,0,0,1-.16,0,.43.43,0,0,1-.29-.1l.19.32,1.8.17a.48.48,0,0,1,.33.18.49.49,0,0,1,.1.37l-.65,4.57,1.46,2.19a.48.48,0,0,1,.07.2l1.07,7.08,2.66,8,2.92,2.73a.49.49,0,0,1,.15.27.48.48,0,0,1-.38.56l-6.7,1.45h-.1a.46.46,0,0,1-.23-.06l-5.52-3h-7.64a.55.55,0,0,1-.25-.07l-5-3-3.91-.86a.5.5,0,0,1-.27-.16l-7.76-9.47-.87.21-.12,0a.5.5,0,0,1-.48-.46l-.18-3.23L393.5,510a.5.5,0,0,1-.24-.36l-1.51-10.76-1.55-.49a.45.45,0,0,1-.21-.12L385.82,494l-.07-.09-3.26-5.37L378.28,485a.59.59,0,0,1-.13-.18l-4.25-10.23-1.8-2.38a.62.62,0,0,1-.1-.22l-.54-3.48-2.68-3.24-3-1.9a.48.48,0,0,1-.16-.63l1.14-2.14-4.59-.84-.17-.07L354.44,455l-8.33-.67h-.18l-2.72-1.36-7.2,2.86-2.34,4.59-1.42,4.87a.37.37,0,0,1-.12.2l-4.66,4.66a.47.47,0,0,1-.35.15.45.45,0,0,1-.16,0l-3.4-1.27h-.09L316,464.23l-5.1-1.83a.41.41,0,0,1-.19-.13l-3.55-3.93-4.51-3a.45.45,0,0,1-.21-.31l-2.12-10.7-5.55-10.13-7.87-5.85-.08-.08-6-7.09-10.41-10.41-27-2.41-2.13,1.71-1.23,6.62a.49.49,0,0,1-.48.39h0l-13.4-1.26-.4-.09h-.33l-34.61-4.28a.34.34,0,0,1-.17-.05l-40.77-21.65-13.21-7.38-7-4.38a.49.49,0,0,1-.17-.64l1.7-3.15-39-3.8a.58.58,0,0,1-.34-.19l-3-4a.62.62,0,0,1-.09-.32l.38-8.2-5.36-8.9L78.09,342l-3.79-1.8a.55.55,0,0,1-.25-.27l-1.84-5.12L67.82,334l-.15-.06-4.22-2.49a.45.45,0,0,1-.2-.21l-1.52-3-4.33-4.62L43,318.45a.55.55,0,0,1-.24-.18l-1.07-1.56a.46.46,0,0,1-.08-.3l.66-12.6-1.87-1a.51.51,0,0,1-.22-.26L33.35,284l-3.85-6a.4.4,0,0,1-.07-.21l-.59-5.92a.53.53,0,0,1,.1-.35l3.36-4.35-5.19-6.4a.47.47,0,0,1-.11-.25l-1.41-10.4V250l.49-5.22a.47.47,0,0,1,.29-.4.43.43,0,0,1,.19,0,.49.49,0,0,1,.44.29l1.58,3.66L30.35,250l-.81-4.74v-.93a.75.75,0,0,1-.07.12l-.09.1a.52.52,0,0,1-.35.14h-.18a.48.48,0,0,1-.3-.45v-.39a.48.48,0,0,1,.41-.48H29a.5.5,0,0,1,.46.34l.06.17.07-3.62a.47.47,0,0,1,.39-.46l1.63-.31-1.41-1.11L27,243.69a.46.46,0,0,1-.35.23h-.06a.47.47,0,0,1-.34-.13l-6-5.73a.48.48,0,0,1-.15-.36l.19-9.25-2.42-3.16v-.09l-4-8.64a.47.47,0,0,1,0-.4L15,213.65l-.35-6.19a.67.67,0,0,1,0-.2l2.28-6.18-1.6-7.56-3.27-5.85a.58.58,0,0,1-.06-.26l.19-4.27a.57.57,0,0,1,.11-.28l6.7-8.39,4.13-11.21.87-9.54v-.35l-1.3-5.79a.53.53,0,0,1,0-.25L24.82,141l.76-7.19a.64.64,0,0,1,.06-.18l3.49-6.8a.8.8,0,0,1,.15-.17l1.28-.92,3.74-5.65,5.59-13.31a.48.48,0,0,1,.4-.3l.71-.06,1.63-7.68,6-14.74L50,81.64l2-8.27V73.3a.49.49,0,0,1,.46-.29.51.51,0,0,1,.2,0l1.77.89,2.73-.8a.55.55,0,0,1,.36,0l2.83,1.47-.26-.5h-.41l-.39-.2a.47.47,0,0,1-.26-.5l.09-.61L56.9,71.45l-2.27.18h0a.48.48,0,0,1-.37-.17L52,68.74a.52.52,0,0,1-.09-.45l1.65-5.63a.52.52,0,0,1,.38-.34H54a.5.5,0,0,1,.49.41L55,65.56l1.19-3.85-2-1a.5.5,0,0,1-.27-.39.51.51,0,0,1,.21-.44l3.29-2.34-3.06-.27a.51.51,0,0,1-.36-.22.54.54,0,0,1,0-.43l.71-2.17,1.06-14.26-1.61-4.37a.34.34,0,0,1,0-.2l.19-2.53a.24.24,0,0,1,0-.12l2.13-6a.55.55,0,0,1,.33-.3l.13,0a.48.48,0,0,1,.3.11l7.81,6.07,8.66,3.77,1.45-.77a.42.42,0,0,1,.22,0,.49.49,0,0,1,.42.24l1.25,2.17,2.52.63a.5.5,0,0,1,.33.32.46.46,0,0,1,.33-.13h.11l.39.09a.49.49,0,0,1,.37.43l.09,1.07a.46.46,0,0,1-.36.51h-.12a.48.48,0,0,1-.42-.25l0-.13v.08l0,0,.37,1.87a.5.5,0,0,1,.24-.09h0a.49.49,0,0,1,.34.14l.87.88a.49.49,0,0,1,.1.54l-1.4,3.12a.4.4,0,0,1,.15.19l.2.44a.53.53,0,0,1,0,.25l-.29,2a.47.47,0,0,1-.47.41h-.06a.49.49,0,0,1-.44-.51v-.89l-.37.82a.48.48,0,0,1-.44.29h-.08l-.63-.1.38,3.15L79.69,52a.47.47,0,0,1,.4-.22l.14,0a.47.47,0,0,1,.35.44l.1,2a.47.47,0,0,1-.33.48l-1.75.58h-.15a.51.51,0,0,1-.39-.19A.64.64,0,0,1,78,55l-1.29-.27-2.24,2.42a.52.52,0,0,1-.37.16.51.51,0,0,1-.17,0l.52.32a.34.34,0,0,1,.1-.16.48.48,0,0,1,.34-.13H75l.67.1a.34.34,0,0,1,.14,0,.5.5,0,0,1,.23.68l4.94-3.45V51.22a.43.43,0,0,1,0-.16l1.26-3.59.06-.12,2.6-3.71-1.72-8-1.59,1.59a.48.48,0,0,1-.34.14h0a.51.51,0,0,1-.31-.11.48.48,0,0,1-.1-.64l1.74-2.71a.42.42,0,0,1,.19-.16l-.35-1.62a.47.47,0,0,1,.18-.48.49.49,0,0,1,.3-.1.54.54,0,0,1,.22.05l2.19,1.14,1.15-2.15L84.9,22.32a.49.49,0,0,1,.15-.44.47.47,0,0,1,.33-.14l.12,0,6.69,1.65,22.43,6.18,19.79,5.05L157.11,40l1.53.27,4.11,1L171.33,43h.14l2.72.57,25.81,5,11.62,1.9L234.71,54,249.16,56l23.29,2.77L295.83,61l35,2.33,20.55.77,17.56.39,20.47.1,29.3-.58h2l1-.1,14.68-.58,11.35-.84-.36-7a.49.49,0,0,1,.18-.41.57.57,0,0,1,.31-.1l.13,0,4.43,1.23a.51.51,0,0,1,.35.4l.38,2.56,3.37,8.42,10,1.42a.51.51,0,0,1,.34.21l1,1.6L474,68.16h4.45L483,69.62a.51.51,0,0,1,.16.09.49.49,0,0,1,.06.69l-.76.89,2.92,1.5,5.2-.38h0a.46.46,0,0,1,.38.18l1.76,2.2,6.4,2.69,8.16-3.32a.41.41,0,0,1,.19,0,.46.46,0,0,1,.37.18l1.28,1.54,9.06-1.23h.06a.46.46,0,0,1,.3.11l2.25,1.71,3.86-.74h.08a.52.52,0,0,1,.46.29.5.5,0,0,1-.16.59L519,81.11,513.06,84l-3.15,2-8.59,11-6.85,7.2,8.55-1.37,7.89-4a.65.65,0,0,1,.32,0l.09-.08.68-.29a.52.52,0,0,1,.4,0,.48.48,0,0,1,.26.3l.06.21,1.06-.68a.5.5,0,0,1,.26-.08.46.46,0,0,1,.37.18l.49.58a.5.5,0,0,1,.07.51.47.47,0,0,1-.41.29l-1.56.1a.64.64,0,0,1-.18-.06.35.35,0,0,1-.08.13.47.47,0,0,1-.31.12h-.21l-.62-.28-.55,5.73.83-.49a.58.58,0,0,1,.26-.06h.06l4.71.61.12-.12.36-.25,7.55-5.71a.38.38,0,0,1,.17-.08l5.22-1.33,9.32-8.94A.48.48,0,0,1,540,89l.12,0a.27.27,0,0,1,.08-.07l8.76-4.3.25-.31a.56.56,0,0,1,.2-.14l2.23-.88a.45.45,0,0,1,.16,0,.47.47,0,0,1,.42.25.48.48,0,0,1-.18.67l-2.51,1.25L546,89.7l-1,2.54,10,3.06a.42.42,0,0,1,.17.1l6.37,5.52,3-1.33a.41.41,0,0,1,.16,0,.39.39,0,0,1,.15,0l4.86,1.17.8-1.59a.58.58,0,0,1,.18-.2l8.49-5.23a.48.48,0,0,1,.23-.07l4.66-.29,7.29-3.45a.45.45,0,0,1,.2,0,.43.43,0,0,1,.19,0h0a.49.49,0,0,1,.27.64l-.5,1.17,1.55,3.72,5,.63,5.79-3.22a.45.45,0,0,1,.25-.07h.06a.47.47,0,0,1,.41.52l-.33,3.48a.49.49,0,0,1,.35.2l1,1.55a.51.51,0,0,1-.11.65.54.54,0,0,1-.3.1.48.48,0,0,1-.35-.16l-.7-.75-.09.93,2.74,1.6a.44.44,0,0,1,.17.16l1.71,2.73a.58.58,0,0,1,0,.14.52.52,0,0,1-.42.59l-6.79,1.07h-.07a.48.48,0,0,1-.26-.07l-1.06-.66-1.44,3.73a.53.53,0,0,1-.47.31.45.45,0,0,1-.2,0l-3.32-1.7-8.31-1-.53,1a.44.44,0,0,1-.26.24l-8.49,3.24-3.5,5.4a.49.49,0,0,1-.41.22h-.1a.46.46,0,0,1-.38-.39l-.42-2.5-2.82,3.13a.27.27,0,0,1-.08.07L565,119.7l-3.67,10.76a.68.68,0,0,1-.11.31l-.17,1.77a.46.46,0,0,1-.1.25l-3.24,4.28-.89,4,2.57-1.49,1.5-3.92a.52.52,0,0,1,.29-.29l2.82-1h0l-.4-1.45a.45.45,0,0,1,0-.28l1.46-4.37a1.09,1.09,0,0,1,.08-.15l2.43-3a.49.49,0,0,1,.38-.18.46.46,0,0,1,.23.06.48.48,0,0,1,.23.58l-3.2,9.78.67.7a.52.52,0,0,1,.11.46L564.79,141l-.18,5.78.75.93a.5.5,0,0,1,.09.47l-2.3,6.39.67,5.13a.38.38,0,0,1,0,.15l-1.25,6.72.66,6,2.57,4.77a.46.46,0,0,1,.06.23v4.5l.37,1.39v.27l.84,5.41,1.94,2a.42.42,0,0,1,.09.14l2.49,5.66,1.42,1.5,1.59.8,1.24.08,3.61-1.67,2.48-2,.5-.33L587,184.87l.85-9.37-.85-5-7.09-13.4a.55.55,0,0,1,0-.36l1-3.31-.77-6.79a.49.49,0,0,1,0-.17l1.33-5.43-1-5.23a.47.47,0,0,1,.18-.48l2.06-1.6,3.16-5,2.69-5.67a.5.5,0,0,1,.44-.27h.11a.47.47,0,0,1,.38.47v6.63l2-1.43-.64-5.73a.47.47,0,0,1,.1-.36l3-3.73-.37-4.17a.49.49,0,0,1,.11-.35l4.08-5a.46.46,0,0,1,.38-.18l.13,0,2.72.79-.82-.61a.49.49,0,0,1-.17-.53.48.48,0,0,1,.43-.34l2.52-.2h0a.47.47,0,0,1,.42.25.49.49,0,0,1,0,.52l-.95,1.33,4.87,1.41a.6.6,0,0,1,.27.2l.85,1.28,9.5,1.62a.45.45,0,0,1,.36.28l4.37,9.7a.74.74,0,0,1,0,.21l-.29,11.46a.54.54,0,0,1,0,.18l-2.81,6.5a.55.55,0,0,1-.29.27l-1,.35.86,5.76,2.51.46,3-5.62-.49-.63a.49.49,0,0,1-.09-.37.5.5,0,0,1,.2-.33l6.25-4.3a.46.46,0,0,1,.27-.09l.13,0,1.75.48a.51.51,0,0,1,.23.15l3.4,3.78a.51.51,0,0,1,.09.16l3.89,10.28,2.59,4.8a.83.83,0,0,1,.06.21l.29,7.77a.5.5,0,0,1-.06.24l-1.07,2a.53.53,0,0,1-.29.24l-.14,0a.42.42,0,0,1-.24-.07l-2.33-1.36-3.34,8.4.29,5.13a.54.54,0,0,1-.06.25L633,187l11.37,1.34a.6.6,0,0,1,.19.06l3.64,2.19,6.74-3.84a.49.49,0,0,1,.17-.06l3.6-.55,4.73-5.78.08-.08,7.48-5.73,3.47-2.25.53-.45,4.77-4.82,2.69-1.9,1.68-1.31,6.88-8,1.7-8.12-.09-.08a.56.56,0,0,1-.17.09h-.08a.49.49,0,0,1-.39-.19l-1-1.34-1.16-1a.53.53,0,0,1-.16-.28l-.48-2.82a.48.48,0,0,1,.23-.5l8.83-5.34a.64.64,0,0,1,.18-.06l9.51-1.36.12,0,.13,0,2.2.88,12.53-7.59,4.09-5.39-1-6.4-.53-.18v.1a.49.49,0,0,1-.48.39h-.1l-.58-.1a.44.44,0,0,1-.23-.1.48.48,0,0,1-.07-.68l.06-.09-1.49-.51a.5.5,0,0,1-.3-.3.51.51,0,0,1,0-.42l2.34-3.54h-.1a.39.39,0,0,1-.23-.07.47.47,0,0,1-.2-.62l.48-1.07a.51.51,0,0,1,.23-.23l.39-.19a.54.54,0,0,1,.22-.05.48.48,0,0,1,.36.16.36.36,0,0,1,.07.18l2.36-3.61-.17-1.77a.54.54,0,0,1,.05-.28l4.56-8.73a.44.44,0,0,1,.08-.11l4.07-4.37A.86.86,0,0,1,737,90l20.34-6.83.52-.27.76-.22,12-4.36,5.23-2L782.16,74l.76-6.16a.5.5,0,0,1,.2-.33.51.51,0,0,1,.29-.1h.09l1.16.24,1.08-1.33.19-.19a.52.52,0,0,1,.36-.14h.06l2.15.27,2-3.79-1.61-1.21a.49.49,0,0,1-.17-.53l2.79-9L790.45,40l-1.26-5.81a.61.61,0,0,1,0-.19l3.6-17.76a.48.48,0,0,1,.3-.36l2.52-1a.39.39,0,0,1,.18,0,.48.48,0,0,1,.42.26l1.73,3.19,1.69.31,7.68-6.46a.54.54,0,0,1,.32-.11M76.44,47.09h.86l1.48-1.91-.78.2-1.56,1.71m-2.69,10a.51.51,0,0,1-.09-.16v.09l.09.07m-1.15,0,.06-.09-.06.09m468.74,34-.79-.77.1.56.69.21m266.83,49.23a.5.5,0,0,1,.39-.2h.07a.43.43,0,0,1,.16.05l.06-1.53a.49.49,0,0,1,.38-.46.45.45,0,0,1,.16,0,.47.47,0,0,1,.17,0,.43.43,0,0,1,0-.16v-.68a.4.4,0,0,1-.2.09l-1.52.35.33,2.53m-31.32,29.23,2.15-1.77v-.13a.48.48,0,0,1-.3.26l-1.86.47v1.17M772.06,231a.53.53,0,0,1,.3-.09.39.39,0,0,1,.15,0,.57.57,0,0,1,.13.08l.3-1.78L773,229l.38-1.59.33-2.26-1.57,4.66a.8.8,0,0,1,.05.21v.21l-.14.69m-21.19-3.8L750,226l.32,1,.6.2m-9,4.32,1.69-1.05h0a.48.48,0,0,1,.23-.07l-2.25-1.45.34,2.58m14.63,11.24,2.3-.12h-.06l-6.16-3.05,3.92,3.17m4.32,13.65.75-.62a.5.5,0,0,1-.26-.08l-5.3-3.59-3.82.36,6.59,2.19a.59.59,0,0,1,.17.1l1.87,1.64m10.06,4.39v-.09H771l-.18-.48.12.57m-1.6,40.5a.55.55,0,0,1,.39-.16h0l1.26.1a.41.41,0,0,1,.24.08l.41.28.27-1.22a.41.41,0,0,1-.14.12.54.54,0,0,1-.21.05.54.54,0,0,1-.22-.05l-1.73-.79-.69,1.33a.52.52,0,0,1,.42.26M608.85,426.45l6-1.93-4,.14-2,1.79m121.66,20.28-1.33-6.49-.17.13a.5.5,0,0,1-.6,0l-2-1.79,3.47,7.15.67,1M493.13,449.8l.58-.81-.14-1.19-.44,2m241.24,57.77h.26l-.22-.12,0,0a.17.17,0,0,1,0,.1M807.63,0A12.57,12.57,0,0,0,800,2.63l-.18.14-.18.16-.42.34a12.65,12.65,0,0,0-3.38-.46,12.46,12.46,0,0,0-4.63.89l-2.5,1A12.55,12.55,0,0,0,781,13.87l-3.59,17.72,0,.26,0,.26a12.82,12.82,0,0,0,0,3.91l.06.34.07.34,1.11,5.09.78,8.63-2,6.55a13.86,13.86,0,0,0-1.21.78,12.43,12.43,0,0,0-4.9,7.47L766.43,67,754.9,71.23l-.38.11-1.14.33-.74.39-19.46,6.53-.65.22-.61.29a12.9,12.9,0,0,0-3,1.94l-.48.42-.43.46-4,4.32a12.47,12.47,0,0,0-2,2.82l-4.54,8.69-.1.21-.1.21a13.29,13.29,0,0,0-.76,2,12.66,12.66,0,0,0-2.66,3.58l-.1.21-.1.21-.45,1a12.81,12.81,0,0,0-.84,2.49l-.06.09-.53.8-.4.88a12.51,12.51,0,0,0-.19,9.84,12.06,12.06,0,0,0,.69,1.45l-3.35,2h-.43a12.42,12.42,0,0,0-2,.17l-9.32,1.33-.18,0-.18,0a12.43,12.43,0,0,0-3.56,1.18l-.39.2-.38.23-8.8,5.32a12.53,12.53,0,0,0-5.88,12.8h0l.48,2.82.06.35.08.33a12.43,12.43,0,0,0,1.34,3.43l-3.5,4.07-.51.4-2.46,1.74-.87.61-.74.75-4.15,4.19-2.62,1.7-.39.26-.38.28-7.48,5.73-.63.48-.56.56-.08.08-.42.43-.38.46L652.3,175l-.19,0c.21-.32.4-.64.58-1h0l1.07-2a12.5,12.5,0,0,0,1.48-6v-.39l-.29-7.77,0-.65-.1-.65a12.72,12.72,0,0,0-.93-3.25l-.2-.46-.24-.45-2.21-4.1-3.58-9.47a12.74,12.74,0,0,0-2.11-3.64l-.15-.18-.16-.18-3.38-3.75a12.52,12.52,0,0,0-5.57-3.6l-.21-.06-.22-.06-1.22-.34,0-1.65a13.09,13.09,0,0,0-.11-2.5l-.24-1.67-.7-1.55-4.35-9.65a12.37,12.37,0,0,0-8.56-7.08,10.15,10.15,0,0,0-.14-1.09,12.25,12.25,0,0,0-1.14-3.48l-.25-.51-.31-.49-1.7-2.71-.34-.53-.22-.51a12.49,12.49,0,0,0-11-12.81,10.91,10.91,0,0,0-1.43-.08,12.26,12.26,0,0,0-3.85.61A12.39,12.39,0,0,0,596.67,79l-.17-.08-.17-.07a12.52,12.52,0,0,0-9.8.14l-.13.06-.13.06-5.21,2.47-2.33.14A12.42,12.42,0,0,0,573,83.5l-6.75,4.15a14.68,14.68,0,0,0-1.48-.08h-.24l-.67-.58a12.37,12.37,0,0,0-1.21-9.35A12.49,12.49,0,0,0,547.72,72l-.27.09-.25.11-2.23.88-.09,0-.09,0a12.63,12.63,0,0,0-2.68,1.51L537.24,77a12.57,12.57,0,0,0-.92-5.67l-.14-.34L536,70.7a12.59,12.59,0,0,0-11.25-7c-.43,0-.86,0-1.29.07a12.55,12.55,0,0,0-5.2-1.14,11.73,11.73,0,0,0-1.67.12l-3.91.53a12.45,12.45,0,0,0-9.93-.19l-3.08,1.25a12.41,12.41,0,0,0-8.94-3.9,12.44,12.44,0,0,0-3.83-2.14l-.12,0-.13,0-4.56-1.46-1.79-.57h-8.8l-2.28,1-.25.11-.66-.12h-.11l-3.13-.45-.27-.66-.17-1.17,0-.14,0-.13A12.46,12.46,0,0,0,456,44.75l-.19-.06-.19,0-4.43-1.23-.1,0-.09,0a12.89,12.89,0,0,0-3.15-.4,12.46,12.46,0,0,0-7.23,2.3l-.34.23-.32.26a12.48,12.48,0,0,0-3.89,5.55l-.38,0-14.47.57h-.36l-.36,0-.41,0h-1.64l-29.15.58-20.22-.1-17.36-.39-20.29-.76L296.8,49l-23.07-2.2-23.06-2.75-14.24-1.91-22.94-3.56-11.38-1.86-25.54-4.95-2.64-.56L172.71,31h-.18l-7.17-1.45-3.88-.94-.38-.09-.37-.07-1.21-.21L137.27,23l-19.58-5L95.38,11.84l-.16,0-.16,0-6.69-1.65a12.55,12.55,0,0,0-3-.37A12.5,12.5,0,0,0,72.93,23.21l-1.71-.74-6.59-5.12a12.45,12.45,0,0,0-11-2.21l-.3.08-.29.1a12.56,12.56,0,0,0-7.53,6.85l-.17.39-.15.41-2.13,6-.18.52-.14.53a12,12,0,0,0-.38,2.67l-.12,1.65a12.15,12.15,0,0,0,.46,5l.1.32.11.31.71,1.93-.76,10.2-.2.63a12.48,12.48,0,0,0-.59,5.68,11.6,11.6,0,0,0-.12,1.17l-1.57,5.33,0,.15,0,.15a12.64,12.64,0,0,0-.22,5.4l0,.1v1.23L38.8,77l-.46.76-.47.79-.35.87-6,14.74-.41,1-.22,1-.74,3.49a12.7,12.7,0,0,0-1.33,2.4l-5.15,12.26-1.92,2.91-.27.23a13.06,13.06,0,0,0-2.38,2.7l-.35.54-.3.57L15,128.12a12.51,12.51,0,0,0-1.2,3.6l-.07.4,0,.4L13,138.41l-1.7,5.12-.16.49-.12.49a12.61,12.61,0,0,0,0,5.7h0l.91,4-.58,6.33L8.41,168.5l-5.49,6.87-.12.16-.12.15a12.66,12.66,0,0,0-2.42,6.17l0,.38,0,.38L0,186.88v.48A12.59,12.59,0,0,0,1.3,193l.13.28.16.26L4,197.79l.5,2.39-1.08,2.93L3,204.26l-.19,1.21a13.21,13.21,0,0,0-.1,2.88l.18,3.09A12.43,12.43,0,0,0,3,221.64l2.87,6.2v1.52l2.34,3-.11,5A12.51,12.51,0,0,0,12,246.76l1.69,1.61,0,.48-.05.56v1.48l.11.8,1.4,10.37a12.49,12.49,0,0,0,2.37,5.82,12.6,12.6,0,0,0-.61,4.65l0,.25,0,.24.57,5.77a12.37,12.37,0,0,0,2,5.73l3.08,4.8,6.33,17.34,0,.07,0,.06a11.77,11.77,0,0,0,1,2.11l-.36,6.83a12.49,12.49,0,0,0,2.18,7.79l1.05,1.54.18.25.18.24a12.46,12.46,0,0,0,5.48,4.1l.12.05.12,0L50.62,334l1.18,1.26.72,1.43a12.63,12.63,0,0,0,4.89,5.2l4.16,2.45.79.47.84.34A12.52,12.52,0,0,0,69,351l.06,0,.06,0,1.45.69,3.42,4,3,5-.21,4.56v.43a12.66,12.66,0,0,0,1.92,6.82L79,373l.3.41,3,4,.27.36.3.34a12.57,12.57,0,0,0,7.37,4.12l.42.07.42,0,29,2.82a12.57,12.57,0,0,0,3.21,2.94l.05,0,0,0,7,4.38.26.16.26.15L144,400.23l.11.06.11.06L185,422a12.26,12.26,0,0,0,4.57,1.43L224,427.64l.14,0,.17,0,.77.08,13.4,1.26h.18l.47,0h.51a12.52,12.52,0,0,0,11.64-8L265,422.33l7,7L277.7,436l.32.38.35.35.08.08.63.63.7.52,5.77,4.29,3.4,6.2,1.75,8.84a12.44,12.44,0,0,0,5.41,8.06l3.19,2.13,2.49,2.75a12.37,12.37,0,0,0,5.14,3.46l3.8,1.36,6.3,4L320,481h1.42l1.37.51.06,0,.07,0A12.48,12.48,0,0,0,336,478.58l4.6-4.6a12.44,12.44,0,0,0,3.22-5.44l.66-2.25h1.18l4.94.4,5.08,3.16,0,0a12.44,12.44,0,0,0,3.55,3.53l.07,0,.07.05.81.51,0,.12.06.3a12.68,12.68,0,0,0,2.29,5l.87,1.15,3.66,8.81.1.24.11.23a12.49,12.49,0,0,0,2.76,3.84l.25.23.27.22,2.7,2.27,2.23,3.69.36.59.43.55.07.09.41.53.47.48,3.38,3.46.77,5.47a12.52,12.52,0,0,0,5.42,8.65,12.51,12.51,0,0,0,4.24,5.64,12.76,12.76,0,0,0,1.86,1.15l5.06,6.18.11.14.12.13a12.56,12.56,0,0,0,6.74,4l2,.44,3.32,2,.15.09.15.09a12.67,12.67,0,0,0,5.7,1.59h5l2.8,1.52a12.46,12.46,0,0,0,6,1.54h1.38l1.26-.27,6.67-1.45A12.5,12.5,0,0,0,449,528.22a12.65,12.65,0,0,0-3.74-6.82h0l-.7-.64-1.37-4.13-.86-5.67c.17-.3.32-.61.46-.92l3.63-8.12a12.37,12.37,0,0,0,1.12-4.52,13.6,13.6,0,0,0,2.09-1l.28-.16.26-.17,5.21-3.38a12.44,12.44,0,0,0,4.25-4.57l1.65-.36a12.35,12.35,0,0,0,4.07-1.7l.11-.07.11-.07,7.41-5,.49-.33.45-.37,4.4-3.65a12.37,12.37,0,0,0,3.92-5.61l.18-.08.34-.18,10.47-5.52a12.37,12.37,0,0,0,5.52-1.93l4.82-.55,7.2,2,.82.22.83.11,6.7.87a12.58,12.58,0,0,0,1.62.1,12.44,12.44,0,0,0,7.37-2.42,12.44,12.44,0,0,0,6.84,5.07l8.29,2.44,1.66.49h5a12.26,12.26,0,0,0,2.5-.26,12.41,12.41,0,0,0,2.49.61,11.92,11.92,0,0,0,1.8.13,12.39,12.39,0,0,0,3.42-.48l.88-.25.84-.39.24-.11a12.24,12.24,0,0,0,4.82-2.64,11.94,11.94,0,0,0,1.71,1.16l.06,0,.06,0a12.5,12.5,0,0,0,14.6-1.88l4.27-4A12.53,12.53,0,0,0,589,446.82l0-.07-.06-.07-1.72-2.17-.16-.2-.17-.2a12.61,12.61,0,0,0-1.67-1.6l.39.05h.08a11.33,11.33,0,0,0,1.3.07,12.55,12.55,0,0,0,4.32-.76,12.25,12.25,0,0,0,1.48.09,12.6,12.6,0,0,0,4.64-.88,13.08,13.08,0,0,0,1.78.13,12,12,0,0,1,5.05-.1,12.28,12.28,0,0,0,4.71-.93l.15-.06.15-.06,1-.42h.09l1.6-.45,5.83-1.65.43-.13.42-.15,4.11-1.5.06,0,0,0h0l7.56,2.55,2.27,1.1A12.49,12.49,0,0,0,644,446.65a12.13,12.13,0,0,0,2.61-.28l5.38-1.16a12.72,12.72,0,0,0,5.16-2.46l.08-.07.08-.06,7-5.83,10.16,7.68a12.46,12.46,0,0,0,5.64,5.07c.29.13.58.25.88.36v0c.1.23.2.47.31.69l-.56,2.4-.11.5-.07.5a12.82,12.82,0,0,0,0,3.66l.06.4.08.38.45,2.08a11.57,11.57,0,0,0,.3,1.42l.31,1.14.53,1.06,2.66,5.32a12.49,12.49,0,0,0,3.19,9.88l.17.19.17.17.57.57a12.65,12.65,0,0,0,2,1.69l4.41,6,.17.5v.06l0,.06a12.52,12.52,0,0,0,5.35,6.63l0,0,0,0,.41.25a12.42,12.42,0,0,0,3.83,1.52l.34.92a12.48,12.48,0,0,0,5.26,6.47l2.43,1.5a12.67,12.67,0,0,0,5.87,3.47,12.5,12.5,0,0,0,3,6.94l2.09,2.38a12.46,12.46,0,0,0,13.35,3.65l1.72-.56h2.11a12.37,12.37,0,0,0,5.79-1.43,12,12,0,0,0,2.82-1.93l.05,0,.32-.28.3-.31a12.84,12.84,0,0,0,1.21-1.46,12.38,12.38,0,0,0,5.13-6.71l.06-.17,0-.17,2.06-7.21a12.7,12.7,0,0,0,1.82-6.77,12.71,12.71,0,0,0,0-3l-1.74-18.91-.06-.61-.11-.6-.38-1.94,0-.07v-.07a12.57,12.57,0,0,0-1.54-3.91h0l-2.09-3.46v-.52l-1.7-2.9-7.08-11.84-.16-.26-.17-.25a9.37,9.37,0,0,0-.57-.79l-1.73-3.37,0-.53,0-.37v-.36a12.54,12.54,0,0,0-2.32-7.15l-.23-.34-.26-.31L729,419l-2.3-3.59-3.5-7-2.44-6.1a12.06,12.06,0,0,0-2-3.45l-.3-5.44a12.49,12.49,0,0,0,1.92-5.81,12.54,12.54,0,0,0,1.2-5.3,12.66,12.66,0,0,0,.67-2.86l0,0,.57-1.11a12.85,12.85,0,0,0,.88-2.19l1.61-1.27.1-.08.1-.08a12.42,12.42,0,0,0,4.13-6.3l4.53-3.84a12.39,12.39,0,0,0,3.6-5.08,12.3,12.3,0,0,0,3.38-4.29,12.47,12.47,0,0,0,4.1-8.27l0-.27v-.27l.08-2,3.43-6.37,1.1-1.4h0a12.06,12.06,0,0,0,1.6.1h.54l.54-.05a12.42,12.42,0,0,0,9.16-5.36l.83-1.19,0-.07,0-.06a12.7,12.7,0,0,0,1.78-4,12,12,0,0,0,.66-4v-1.11l.23-1.23v-.07l.15-.28,2-1.91.3-.29.28-.31a12.12,12.12,0,0,0,1-1.2l.66-.44.26.07h1.72a12.49,12.49,0,0,0,11.51-7.65l0-.09,0-.09,2.71-6.77a12.07,12.07,0,0,0,.82-2.71,12.52,12.52,0,0,0,9.66-12.58V285l-.27-4.81v-1.69l-.59-1.82L793.87,271a12.44,12.44,0,0,0-3.21-5.14l-7.48-11,0-.1-.3-.59-.36-.56-3-4.54.58-2.59,1.55-4.84a12.46,12.46,0,0,0,2.94-4.69l.38-1.09.29-.8.16-.83.49-2.43.08-.36,0-.37.78-5.65a12.33,12.33,0,0,0-.12-4c0-.28,0-.57,0-.86v-.79a12.37,12.37,0,0,0-.9-4.5l-.56-1.47.21-.29a12.6,12.6,0,0,0,2.25-6v-.14a12.44,12.44,0,0,0,1.9-2.87l.22-.34.34-.68a12.6,12.6,0,0,0,.88-8.66l.38-.89.24-1.51a12.25,12.25,0,0,0,.15-2.42V179.8a12.47,12.47,0,0,0,5.48-2.83l4.81-4.23.07-.07.08-.06,0,0,.55-.51,10.18-9.6.07-.07.07-.07a12.44,12.44,0,0,0,3.75-9.31c.22-.21.42-.42.62-.64a12.49,12.49,0,0,0,4.44-4,12.44,12.44,0,0,0,6.1-2.45h.21l.77-.1a12.55,12.55,0,0,0,11-13l0-.83a12.53,12.53,0,0,0-1.32-6.9L836.09,120A12.4,12.4,0,0,0,825,113.13c-.36,0-.71,0-1.06.05a12.45,12.45,0,0,0-3.65-6.6l-.31-.28V106a12.52,12.52,0,0,0,1.35-3.52l0-.12,0-.13.56-2.88.45-.25a12.48,12.48,0,0,0,5.75-7.38l1.69-2,.06-.07,0-.08a11.84,11.84,0,0,0,1.55-2.48l1-.48.05,0,0,0a12.52,12.52,0,0,0,6.33-7.63c.09-.19.17-.39.25-.59a12.41,12.41,0,0,0,6.72-7l.25-.2a12.52,12.52,0,0,0,7.33-8.79c0-.12.06-.24.08-.35l.79-1.91a12.47,12.47,0,0,0,2-9L856,49.21l0-.21,0-.21a12.44,12.44,0,0,0-3.55-6.58,12.45,12.45,0,0,0-7.9-5h-.05A11.39,11.39,0,0,0,843,37a12.5,12.5,0,0,0-8.31-7.69L826,10.93a12.5,12.5,0,0,0-5.42-5.76l-.07,0-.07,0L813.39,1.4l-.22-.11-.22-.1A12.53,12.53,0,0,0,807.63,0Z"/></g></g></g></g></g></g></svg>